<svg width="203" height="288" viewBox="0 0 203 288" fill="none" xmlns="http://www.w3.org/2000/svg">
<g clip-path="url(#clip0_102_659)">
<rect width="203" height="288" rx="10" fill="white"/>
<path d="M7.47871 40.2002C6.39766 40.2002 5.73701 39.4595 5.73701 38.2783V14.395C5.73701 13.2139 6.39766 12.4731 7.47871 12.4731C8.55977 12.4731 9.24043 13.2139 9.24043 14.395V38.2783C9.24043 39.4595 8.55977 40.2002 7.47871 40.2002ZM10.2454 26.8672V25.8662C10.2454 17.5781 13.7889 12.0928 19.9749 12.0928C26.1609 12.0928 29.6844 17.5781 29.6844 25.8662V26.8672C29.6844 35.1353 26.1409 40.5806 19.9549 40.5806C13.7889 40.5806 10.2454 35.1553 10.2454 26.8672ZM13.7488 25.8862V26.8271C13.7488 33.4937 16.1312 37.5576 19.9749 37.5576C23.8187 37.5576 26.201 33.4937 26.201 26.8271V25.8862C26.201 19.2197 23.7986 15.1357 19.9549 15.1357C16.1312 15.1357 13.7488 19.2197 13.7488 25.8862Z" fill="#BC1E24"/>
<path d="M13.7347 49.0006C16.4518 49.042 17.5069 51.3984 17.8537 52.5094C17.8888 52.6218 18.1122 52.6217 18.1472 52.5093C18.4938 51.3983 19.5482 49.042 22.2653 49.0006C25.8229 48.9462 28.4995 52.9292 26.0587 56.9289C23.8832 60.4939 18.0821 67 18 67C17.9165 67 12.1169 60.4943 9.94127 56.9289C7.50053 52.9291 10.177 48.9462 13.7347 49.0006Z" fill="#BC1E24"/>
<path d="M195.521 247.8C196.602 247.8 197.263 248.541 197.263 249.722L197.263 273.605C197.263 274.786 196.602 275.527 195.521 275.527C194.44 275.527 193.76 274.786 193.76 273.605L193.76 249.722C193.76 248.541 194.44 247.8 195.521 247.8ZM192.755 261.133L192.755 262.134C192.755 270.422 189.211 275.907 183.025 275.907C176.839 275.907 173.316 270.422 173.316 262.134L173.316 261.133C173.316 252.865 176.859 247.419 183.045 247.419C189.211 247.419 192.755 252.845 192.755 261.133ZM189.251 262.114L189.251 261.173C189.251 254.506 186.869 250.442 183.025 250.442C179.181 250.442 176.799 254.506 176.799 261.173L176.799 262.114C176.799 268.78 179.201 272.864 183.045 272.864C186.869 272.864 189.251 268.78 189.251 262.114Z" fill="#BC1E24"/>
<path d="M189.265 238.999C186.548 238.958 185.493 236.602 185.146 235.491C185.111 235.378 184.888 235.378 184.853 235.491C184.506 236.602 183.452 238.958 180.735 238.999C177.177 239.054 174.501 235.071 176.941 231.071C179.117 227.506 184.918 221 185 221C185.083 221 190.883 227.506 193.059 231.071C195.499 235.071 192.823 239.054 189.265 238.999Z" fill="#BC1E24"/>
<path d="M47.2207 26.2513C53.7689 26.3516 56.3116 32.0461 57.1476 34.731C57.2321 35.0026 57.7704 35.0025 57.8549 34.7309C58.6901 32.0459 61.2313 26.3516 67.7794 26.2513C76.3533 26.1199 82.8039 35.7455 76.9216 45.4114C71.6786 54.0268 57.6979 69.75 57.5 69.7499C57.2989 69.7499 43.3219 54.0277 38.0785 45.4114C32.1963 35.7454 38.6467 26.1199 47.2207 26.2513Z" fill="#BC1E24"/>
<path d="M47.2207 197.749C53.7689 197.648 56.3116 191.954 57.1476 189.269C57.2321 188.997 57.7704 188.998 57.8549 189.269C58.6901 191.954 61.2313 197.648 67.7794 197.749C76.3533 197.88 82.8039 188.255 76.9216 178.589C71.6786 169.973 57.6979 154.25 57.5 154.25C57.2989 154.25 43.3219 169.972 38.0785 178.589C32.1963 188.255 38.6467 197.88 47.2207 197.749Z" fill="#BC1E24"/>
<path d="M135.221 26.2513C141.769 26.3516 144.312 32.0461 145.148 34.731C145.232 35.0026 145.77 35.0025 145.855 34.7309C146.69 32.0459 149.231 26.3516 155.779 26.2513C164.353 26.1199 170.804 35.7455 164.922 45.4114C159.679 54.0268 145.698 69.75 145.5 69.7499C145.299 69.7499 131.322 54.0277 126.079 45.4114C120.196 35.7454 126.647 26.1199 135.221 26.2513Z" fill="#BC1E24"/>
<path d="M47.2207 90.2513C53.7689 90.3516 56.3116 96.0461 57.1476 98.731C57.2321 99.0026 57.7704 99.0025 57.8549 98.7309C58.6901 96.0459 61.2313 90.3516 67.7794 90.2513C76.3533 90.1199 82.8039 99.7455 76.9216 109.411C71.6786 118.027 57.6979 133.75 57.5 133.75C57.2989 133.75 43.3219 118.028 38.0785 109.411C32.1963 99.7454 38.6467 90.1199 47.2207 90.2513Z" fill="#BC1E24"/>
<path d="M47.2207 261.749C53.7689 261.648 56.3116 255.954 57.1476 253.269C57.2321 252.997 57.7704 252.998 57.8549 253.269C58.6901 255.954 61.2313 261.648 67.7794 261.749C76.3533 261.88 82.8039 252.255 76.9216 242.589C71.6786 233.973 57.6979 218.25 57.5 218.25C57.2989 218.25 43.3219 233.972 38.0785 242.589C32.1963 252.255 38.6467 261.88 47.2207 261.749Z" fill="#BC1E24"/>
<path d="M135.221 90.2513C141.769 90.3516 144.312 96.0461 145.148 98.731C145.232 99.0026 145.77 99.0025 145.855 98.7309C146.69 96.0459 149.231 90.3516 155.779 90.2513C164.353 90.1199 170.804 99.7455 164.922 109.411C159.679 118.027 145.698 133.75 145.5 133.75C145.299 133.75 131.322 118.028 126.079 109.411C120.196 99.7454 126.647 90.1199 135.221 90.2513Z" fill="#BC1E24"/>
<path d="M91.2207 58.2513C97.7689 58.3516 100.312 64.0461 101.148 66.731C101.232 67.0026 101.77 67.0025 101.855 66.7309C102.69 64.0459 105.231 58.3516 111.779 58.2513C120.353 58.1199 126.804 67.7455 120.922 77.4114C115.679 86.0268 101.698 101.75 101.5 101.75C101.299 101.75 87.3219 86.0277 82.0785 77.4114C76.1963 67.7454 82.6467 58.1199 91.2207 58.2513Z" fill="#BC1E24"/>
<path d="M91.2207 229.749C97.7689 229.648 100.312 223.954 101.148 221.269C101.232 220.997 101.77 220.998 101.855 221.269C102.69 223.954 105.231 229.648 111.779 229.749C120.353 229.88 126.804 220.255 120.922 210.589C115.679 201.973 101.698 186.25 101.5 186.25C101.299 186.25 87.3219 201.972 82.0785 210.589C76.1963 220.255 82.6467 229.88 91.2207 229.749Z" fill="#BC1E24"/>
<path d="M135.221 261.749C141.769 261.648 144.312 255.954 145.148 253.269C145.232 252.997 145.77 252.998 145.855 253.269C146.69 255.954 149.231 261.648 155.779 261.749C164.353 261.88 170.804 252.255 164.922 242.589C159.679 233.973 145.698 218.25 145.5 218.25C145.299 218.25 131.322 233.972 126.079 242.589C120.196 252.255 126.647 261.88 135.221 261.749Z" fill="#BC1E24"/>
<path d="M135.221 197.749C141.769 197.648 144.312 191.954 145.148 189.269C145.232 188.997 145.77 188.998 145.855 189.269C146.69 191.954 149.231 197.648 155.779 197.749C164.353 197.88 170.804 188.255 164.922 178.589C159.679 169.973 145.698 154.25 145.5 154.25C145.299 154.25 131.322 169.972 126.079 178.589C120.196 188.255 126.647 197.88 135.221 197.749Z" fill="#BC1E24"/>
</g>
<defs>
<clipPath id="clip0_102_659">
<rect width="203" height="288" rx="10" fill="white"/>
</clipPath>
</defs>
</svg>
