<svg width="203" height="288" viewBox="0 0 203 288" fill="none" xmlns="http://www.w3.org/2000/svg">
<g clip-path="url(#clip0_102_651)">
<rect width="203" height="288" rx="10" fill="white"/>
<path d="M9.23193 38.1382C9.23193 37.4175 9.57227 36.8569 10.7534 35.5156L19.0815 25.9863C21.3438 23.4038 22.2046 21.7222 22.2046 19.8403C22.2046 17.0176 20.1826 15.1357 17.1396 15.1357C14.5571 15.1357 12.6553 16.6772 12.0547 19.2798C11.7744 20.3408 11.2139 20.8813 10.3931 20.8813C9.41211 20.8813 8.77148 20.1406 8.77148 19.0596C8.77148 15.6562 12.0747 12.0928 17.3599 12.0928C22.2847 12.0928 25.748 15.2158 25.748 19.6201C25.748 22.2227 24.7271 24.1245 21.1235 28.2285L13.7163 36.6968V36.937H24.8271C25.8882 36.937 26.5688 37.5176 26.5688 38.4785C26.5688 39.4194 25.9282 40 24.8271 40H11.6143C10.1528 40 9.23193 39.2993 9.23193 38.1382Z" fill="#BC1E24"/>
<path d="M13.7347 49.0006C16.4518 49.042 17.5069 51.3984 17.8537 52.5094C17.8888 52.6218 18.1122 52.6217 18.1472 52.5093C18.4938 51.3983 19.5482 49.042 22.2653 49.0006C25.8229 48.9462 28.4995 52.9292 26.0587 56.9289C23.8832 60.4939 18.0821 67 18 67C17.9165 67 12.1169 60.4943 9.94127 56.9289C7.50053 52.9291 10.177 48.9462 13.7347 49.0006Z" fill="#BC1E24"/>
<path d="M193.768 249.862C193.768 250.583 193.428 251.143 192.247 252.484L183.918 262.014C181.656 264.596 180.795 266.278 180.795 268.16C180.795 270.982 182.817 272.864 185.86 272.864C188.443 272.864 190.345 271.323 190.945 268.72C191.226 267.659 191.786 267.119 192.607 267.119C193.588 267.119 194.229 267.859 194.229 268.94C194.229 272.344 190.925 275.907 185.64 275.907C180.715 275.907 177.252 272.784 177.252 268.38C177.252 265.777 178.273 263.875 181.876 259.771L189.284 251.303L189.284 251.063L178.173 251.063C177.112 251.063 176.431 250.482 176.431 249.521C176.431 248.581 177.072 248 178.173 248L191.386 248C192.847 248 193.768 248.701 193.768 249.862Z" fill="#BC1E24"/>
<path d="M189.265 238.999C186.548 238.958 185.493 236.602 185.146 235.491C185.111 235.378 184.888 235.378 184.853 235.491C184.506 236.602 183.452 238.958 180.735 238.999C177.177 239.054 174.501 235.071 176.941 231.071C179.117 227.506 184.918 221 185 221C185.083 221 190.883 227.506 193.059 231.071C195.499 235.071 192.823 239.054 189.265 238.999Z" fill="#BC1E24"/>
<path d="M91.2207 26.2513C97.7689 26.3516 100.312 32.0461 101.148 34.731C101.232 35.0026 101.77 35.0025 101.855 34.7309C102.69 32.0459 105.231 26.3516 111.779 26.2513C120.353 26.1199 126.804 35.7455 120.922 45.4114C115.679 54.0268 101.698 69.75 101.5 69.7499C101.299 69.7499 87.3219 54.0277 82.0785 45.4114C76.1963 35.7454 82.6467 26.1199 91.2207 26.2513Z" fill="#BC1E24"/>
<path d="M91.2207 261.749C97.7689 261.648 100.312 255.954 101.148 253.269C101.232 252.997 101.77 252.998 101.855 253.269C102.69 255.954 105.231 261.648 111.779 261.749C120.353 261.88 126.804 252.255 120.922 242.589C115.679 233.973 101.698 218.25 101.5 218.25C101.299 218.25 87.3219 233.972 82.0785 242.589C76.1963 252.255 82.6467 261.88 91.2207 261.749Z" fill="#BC1E24"/>
</g>
<defs>
<clipPath id="clip0_102_651">
<rect width="203" height="288" rx="10" fill="white"/>
</clipPath>
</defs>
</svg>
