<svg width="203" height="288" viewBox="0 0 203 288" fill="none" xmlns="http://www.w3.org/2000/svg">
<g clip-path="url(#clip0_102_652)">
<rect width="203" height="288" rx="10" fill="white"/>
<path d="M8.31104 34.3945C8.31104 33.4937 8.93164 32.853 9.8125 32.853C10.5132 32.853 10.9536 33.2134 11.4741 34.2344C12.5151 36.3765 14.5972 37.5776 17.3198 37.5776C20.9033 37.5776 23.1855 35.6157 23.1855 32.5527C23.1855 29.4897 20.8433 27.4277 17.3599 27.4277H14.8574C13.9365 27.4277 13.2559 26.7671 13.2559 25.9062C13.2559 25.0254 13.8965 24.4048 14.8574 24.4048H17.2197C20.1426 24.4048 22.2646 22.4229 22.2646 19.6802C22.2646 16.9375 20.2026 15.0957 17.1396 15.0957C14.7573 15.0957 12.9556 16.2769 12.1548 18.3389C11.7544 19.4399 11.2539 19.8604 10.4731 19.8604C9.55225 19.8604 8.95166 19.1997 8.95166 18.1987C8.95166 15.0957 12.2949 12.0928 17.2197 12.0928C22.2246 12.0928 25.7881 15.0757 25.7881 19.2397C25.7881 22.2627 23.5259 25.1455 20.7432 25.626V25.8262C24.1265 26.2065 26.709 29.1694 26.709 32.6128C26.709 37.2974 22.8252 40.5806 17.2598 40.5806C12.0947 40.5806 8.31104 37.4575 8.31104 34.3945Z" fill="#BC1E24"/>
<path d="M13.7347 49.0006C16.4518 49.042 17.5069 51.3984 17.8537 52.5094C17.8888 52.6218 18.1122 52.6217 18.1472 52.5093C18.4938 51.3983 19.5482 49.042 22.2653 49.0006C25.8229 48.9462 28.4995 52.9292 26.0587 56.9289C23.8832 60.4939 18.0821 67 18 67C17.9165 67 12.1169 60.4943 9.94127 56.9289C7.50053 52.9291 10.177 48.9462 13.7347 49.0006Z" fill="#BC1E24"/>
<path d="M194.689 253.605C194.689 254.506 194.068 255.147 193.188 255.147C192.487 255.147 192.046 254.787 191.526 253.766C190.485 251.624 188.403 250.422 185.68 250.422C182.097 250.422 179.814 252.384 179.814 255.447C179.814 258.51 182.157 260.572 185.64 260.572L188.143 260.572C189.063 260.572 189.744 261.233 189.744 262.094C189.744 262.975 189.104 263.595 188.143 263.595L185.78 263.595C182.857 263.595 180.735 265.577 180.735 268.32C180.735 271.062 182.797 272.904 185.86 272.904C188.243 272.904 190.044 271.723 190.845 269.661C191.246 268.56 191.746 268.14 192.527 268.14C193.448 268.14 194.048 268.8 194.048 269.801C194.048 272.904 190.705 275.907 185.78 275.907C180.775 275.907 177.212 272.924 177.212 268.76C177.212 265.737 179.474 262.854 182.257 262.374L182.257 262.174C178.874 261.793 176.291 258.831 176.291 255.387C176.291 250.703 180.175 247.419 185.74 247.419C190.905 247.419 194.689 250.542 194.689 253.605Z" fill="#BC1E24"/>
<path d="M189.265 238.999C186.548 238.958 185.493 236.602 185.146 235.491C185.111 235.378 184.888 235.378 184.853 235.491C184.506 236.602 183.452 238.958 180.735 238.999C177.177 239.054 174.501 235.071 176.941 231.071C179.117 227.506 184.918 221 185 221C185.083 221 190.883 227.506 193.059 231.071C195.499 235.071 192.823 239.054 189.265 238.999Z" fill="#BC1E24"/>
<path d="M91.2207 26.2513C97.7689 26.3516 100.312 32.0461 101.148 34.731C101.232 35.0026 101.77 35.0025 101.855 34.7309C102.69 32.0459 105.231 26.3516 111.779 26.2513C120.353 26.1199 126.804 35.7455 120.922 45.4114C115.679 54.0268 101.698 69.75 101.5 69.7499C101.299 69.7499 87.3219 54.0277 82.0785 45.4114C76.1963 35.7454 82.6467 26.1199 91.2207 26.2513Z" fill="#BC1E24"/>
<path d="M91.2207 122.251C97.7689 122.352 100.312 128.046 101.148 130.731C101.232 131.003 101.77 131.002 101.855 130.731C102.69 128.046 105.231 122.352 111.779 122.251C120.353 122.12 126.804 131.745 120.922 141.411C115.679 150.027 101.698 165.75 101.5 165.75C101.299 165.75 87.3219 150.028 82.0785 141.411C76.1963 131.745 82.6467 122.12 91.2207 122.251Z" fill="#BC1E24"/>
<path d="M91.2207 261.749C97.7689 261.648 100.312 255.954 101.148 253.269C101.232 252.997 101.77 252.998 101.855 253.269C102.69 255.954 105.231 261.648 111.779 261.749C120.353 261.88 126.804 252.255 120.922 242.589C115.679 233.973 101.698 218.25 101.5 218.25C101.299 218.25 87.3219 233.972 82.0785 242.589C76.1963 252.255 82.6467 261.88 91.2207 261.749Z" fill="#BC1E24"/>
</g>
<defs>
<clipPath id="clip0_102_652">
<rect width="203" height="288" rx="10" fill="white"/>
</clipPath>
</defs>
</svg>
