<svg width="203" height="288" viewBox="0 0 203 288" fill="none" xmlns="http://www.w3.org/2000/svg">
<g clip-path="url(#clip0_102_655)">
<rect width="203" height="288" rx="10" fill="white"/>
<path d="M8.03076 27.1274C8.03076 17.498 11.7344 12.1528 18.3809 12.1528C20.5229 12.1528 22.585 12.7334 24.1064 13.7744C25.4277 14.6353 26.2285 15.7363 26.2285 16.6572C26.2285 17.5181 25.6079 18.1587 24.7471 18.1587C24.1865 18.1587 23.7661 17.9385 23.0454 17.2378C21.604 15.8164 20.1025 15.1758 18.3208 15.1758C13.8564 15.1758 11.4941 19.0996 11.4341 26.5869H11.5942C12.5151 24.1445 15.3779 22.4229 18.501 22.4229C23.5859 22.4229 27.1494 26.0864 27.1494 31.3115C27.1494 36.8169 23.3857 40.5605 17.8203 40.5605C14.437 40.5605 11.7344 39.1592 10.0928 36.5767C8.71143 34.3745 8.03076 31.2715 8.03076 27.1274ZM11.9346 31.4316C11.9346 35.0151 14.417 37.5576 17.9604 37.5576C21.4038 37.5576 23.7061 35.1353 23.7061 31.4517C23.7061 27.8081 21.3838 25.4058 17.8203 25.4058C14.3569 25.4058 11.9346 27.8882 11.9346 31.4316Z" fill="#BC1E24"/>
<path d="M13.7347 49.0006C16.4518 49.042 17.5069 51.3984 17.8537 52.5094C17.8888 52.6218 18.1122 52.6217 18.1472 52.5093C18.4938 51.3983 19.5482 49.042 22.2653 49.0006C25.8229 48.9462 28.4995 52.9292 26.0587 56.9289C23.8832 60.4939 18.0821 67 18 67C17.9165 67 12.1169 60.4943 9.94127 56.9289C7.50053 52.9291 10.177 48.9462 13.7347 49.0006Z" fill="#BC1E24"/>
<path d="M194.969 260.873C194.969 270.502 191.266 275.847 184.619 275.847C182.477 275.847 180.415 275.267 178.894 274.226C177.572 273.365 176.771 272.264 176.771 271.343C176.771 270.482 177.392 269.841 178.253 269.841C178.813 269.841 179.234 270.062 179.955 270.762C181.396 272.184 182.897 272.824 184.679 272.824C189.144 272.824 191.506 268.9 191.566 261.413L191.406 261.413C190.485 263.855 187.622 265.577 184.499 265.577C179.414 265.577 175.851 261.914 175.851 256.688C175.851 251.183 179.614 247.439 185.18 247.439C188.563 247.439 191.266 248.841 192.907 251.423C194.289 253.625 194.969 256.729 194.969 260.873ZM191.065 256.568C191.065 252.985 188.583 250.442 185.04 250.442C181.596 250.442 179.294 252.865 179.294 256.548C179.294 260.192 181.616 262.594 185.18 262.594C188.643 262.594 191.065 260.112 191.065 256.568Z" fill="#BC1E24"/>
<path d="M189.265 238.999C186.548 238.958 185.493 236.602 185.146 235.491C185.111 235.378 184.888 235.378 184.853 235.491C184.506 236.602 183.452 238.958 180.735 238.999C177.177 239.054 174.501 235.071 176.941 231.071C179.117 227.506 184.918 221 185 221C185.083 221 190.883 227.506 193.059 231.071C195.499 235.071 192.823 239.054 189.265 238.999Z" fill="#BC1E24"/>
<path d="M47.2207 26.2513C53.7689 26.3516 56.3116 32.0461 57.1476 34.731C57.2321 35.0026 57.7704 35.0025 57.8549 34.7309C58.6901 32.0459 61.2313 26.3516 67.7794 26.2513C76.3533 26.1199 82.8039 35.7455 76.9216 45.4114C71.6786 54.0268 57.6979 69.75 57.5 69.7499C57.2989 69.7499 43.3219 54.0277 38.0785 45.4114C32.1963 35.7454 38.6467 26.1199 47.2207 26.2513Z" fill="#BC1E24"/>
<path d="M47.2207 261.749C53.7689 261.648 56.3116 255.954 57.1476 253.269C57.2321 252.997 57.7704 252.998 57.8549 253.269C58.6901 255.954 61.2313 261.648 67.7794 261.749C76.3533 261.88 82.8039 252.255 76.9216 242.589C71.6786 233.973 57.6979 218.25 57.5 218.25C57.2989 218.25 43.3219 233.972 38.0785 242.589C32.1963 252.255 38.6467 261.88 47.2207 261.749Z" fill="#BC1E24"/>
<path d="M135.221 26.2513C141.769 26.3516 144.312 32.0461 145.148 34.731C145.232 35.0026 145.77 35.0025 145.855 34.7309C146.69 32.0459 149.231 26.3516 155.779 26.2513C164.353 26.1199 170.804 35.7455 164.922 45.4114C159.679 54.0268 145.698 69.75 145.5 69.7499C145.299 69.7499 131.322 54.0277 126.079 45.4114C120.196 35.7454 126.647 26.1199 135.221 26.2513Z" fill="#BC1E24"/>
<path d="M47.2207 122.251C53.7689 122.352 56.3116 128.046 57.1476 130.731C57.2321 131.003 57.7704 131.002 57.8549 130.731C58.6901 128.046 61.2313 122.352 67.7794 122.251C76.3533 122.12 82.8039 131.745 76.9216 141.411C71.6786 150.027 57.6979 165.75 57.5 165.75C57.2989 165.75 43.3219 150.028 38.0785 141.411C32.1963 131.745 38.6467 122.12 47.2207 122.251Z" fill="#BC1E24"/>
<path d="M135.221 122.251C141.769 122.352 144.312 128.046 145.148 130.731C145.232 131.003 145.77 131.002 145.855 130.731C146.69 128.046 149.231 122.352 155.779 122.251C164.353 122.12 170.804 131.745 164.922 141.411C159.679 150.027 145.698 165.75 145.5 165.75C145.299 165.75 131.322 150.028 126.079 141.411C120.196 131.745 126.647 122.12 135.221 122.251Z" fill="#BC1E24"/>
<path d="M135.221 261.749C141.769 261.648 144.312 255.954 145.148 253.269C145.232 252.997 145.77 252.998 145.855 253.269C146.69 255.954 149.231 261.648 155.779 261.749C164.353 261.88 170.804 252.255 164.922 242.589C159.679 233.973 145.698 218.25 145.5 218.25C145.299 218.25 131.322 233.972 126.079 242.589C120.196 252.255 126.647 261.88 135.221 261.749Z" fill="#BC1E24"/>
</g>
<defs>
<clipPath id="clip0_102_655">
<rect width="203" height="288" rx="10" fill="white"/>
</clipPath>
</defs>
</svg>
