<svg width="203" height="288" viewBox="0 0 203 288" fill="none" xmlns="http://www.w3.org/2000/svg">
<g clip-path="url(#clip0_102_656)">
<rect width="203" height="288" rx="10" fill="white"/>
<path d="M11.5347 38.7588C11.5347 38.3184 11.6748 37.938 11.895 37.4976L22.0049 15.9365V15.7363H9.59277C8.35156 15.7363 7.75098 15.0957 7.75098 14.2148C7.75098 13.314 8.35156 12.6733 9.59277 12.6733H23.8467C24.8877 12.6733 25.7485 13.394 25.7485 14.5752C25.7485 15.1357 25.4683 16.0566 25.0278 16.9976L14.8179 39.0391C14.4375 39.8398 13.957 40.3203 13.1162 40.3203C12.2954 40.3203 11.5347 39.6997 11.5347 38.7588Z" fill="#BC1E24"/>
<path d="M13.7347 49.0006C16.4518 49.042 17.5069 51.3984 17.8537 52.5094C17.8888 52.6218 18.1122 52.6217 18.1472 52.5093C18.4938 51.3983 19.5482 49.042 22.2653 49.0006C25.8229 48.9462 28.4995 52.9292 26.0587 56.9289C23.8832 60.4939 18.0821 67 18 67C17.9165 67 12.1169 60.4943 9.94127 56.9289C7.50053 52.9291 10.177 48.9462 13.7347 49.0006Z" fill="#BC1E24"/>
<path d="M191.465 249.241C191.465 249.682 191.325 250.062 191.105 250.502L180.995 272.063L180.995 272.264L193.407 272.264C194.648 272.264 195.249 272.904 195.249 273.785C195.249 274.686 194.648 275.327 193.407 275.327L179.153 275.327C178.112 275.327 177.251 274.606 177.251 273.425C177.251 272.864 177.532 271.943 177.972 271.002L188.182 248.961C188.563 248.16 189.043 247.68 189.884 247.68C190.705 247.68 191.465 248.3 191.465 249.241Z" fill="#BC1E24"/>
<path d="M189.265 238.999C186.548 238.958 185.493 236.602 185.146 235.491C185.111 235.378 184.888 235.378 184.853 235.491C184.506 236.602 183.452 238.958 180.735 238.999C177.177 239.054 174.501 235.071 176.941 231.071C179.117 227.506 184.918 221 185 221C185.083 221 190.883 227.506 193.059 231.071C195.499 235.071 192.823 239.054 189.265 238.999Z" fill="#BC1E24"/>
<path d="M47.2207 26.2513C53.7689 26.3516 56.3116 32.0461 57.1476 34.731C57.2321 35.0026 57.7704 35.0025 57.8549 34.7309C58.6901 32.0459 61.2313 26.3516 67.7794 26.2513C76.3533 26.1199 82.8039 35.7455 76.9216 45.4114C71.6786 54.0268 57.6979 69.75 57.5 69.7499C57.2989 69.7499 43.3219 54.0277 38.0785 45.4114C32.1963 35.7454 38.6467 26.1199 47.2207 26.2513Z" fill="#BC1E24"/>
<path d="M47.2207 261.749C53.7689 261.648 56.3116 255.954 57.1476 253.269C57.2321 252.997 57.7704 252.998 57.8549 253.269C58.6901 255.954 61.2313 261.648 67.7794 261.749C76.3533 261.88 82.8039 252.255 76.9216 242.589C71.6786 233.973 57.6979 218.25 57.5 218.25C57.2989 218.25 43.3219 233.972 38.0785 242.589C32.1963 252.255 38.6467 261.88 47.2207 261.749Z" fill="#BC1E24"/>
<path d="M135.221 26.2513C141.769 26.3516 144.312 32.0461 145.148 34.731C145.232 35.0026 145.77 35.0025 145.855 34.7309C146.69 32.0459 149.231 26.3516 155.779 26.2513C164.353 26.1199 170.804 35.7455 164.922 45.4114C159.679 54.0268 145.698 69.75 145.5 69.7499C145.299 69.7499 131.322 54.0277 126.079 45.4114C120.196 35.7454 126.647 26.1199 135.221 26.2513Z" fill="#BC1E24"/>
<path d="M47.2207 122.251C53.7689 122.352 56.3116 128.046 57.1476 130.731C57.2321 131.003 57.7704 131.002 57.8549 130.731C58.6901 128.046 61.2313 122.352 67.7794 122.251C76.3533 122.12 82.8039 131.745 76.9216 141.411C71.6786 150.027 57.6979 165.75 57.5 165.75C57.2989 165.75 43.3219 150.028 38.0785 141.411C32.1963 131.745 38.6467 122.12 47.2207 122.251Z" fill="#BC1E24"/>
<path d="M91.2207 74.2513C97.7689 74.3516 100.312 80.0461 101.148 82.731C101.232 83.0026 101.77 83.0025 101.855 82.7309C102.69 80.0459 105.231 74.3516 111.779 74.2513C120.353 74.1199 126.804 83.7455 120.922 93.4114C115.679 102.027 101.698 117.75 101.5 117.75C101.299 117.75 87.3219 102.028 82.0785 93.4114C76.1963 83.7454 82.6467 74.1199 91.2207 74.2513Z" fill="#BC1E24"/>
<path d="M135.221 122.251C141.769 122.352 144.312 128.046 145.148 130.731C145.232 131.003 145.77 131.002 145.855 130.731C146.69 128.046 149.231 122.352 155.779 122.251C164.353 122.12 170.804 131.745 164.922 141.411C159.679 150.027 145.698 165.75 145.5 165.75C145.299 165.75 131.322 150.028 126.079 141.411C120.196 131.745 126.647 122.12 135.221 122.251Z" fill="#BC1E24"/>
<path d="M135.221 261.749C141.769 261.648 144.312 255.954 145.148 253.269C145.232 252.997 145.77 252.998 145.855 253.269C146.69 255.954 149.231 261.648 155.779 261.749C164.353 261.88 170.804 252.255 164.922 242.589C159.679 233.973 145.698 218.25 145.5 218.25C145.299 218.25 131.322 233.972 126.079 242.589C120.196 252.255 126.647 261.88 135.221 261.749Z" fill="#BC1E24"/>
</g>
<defs>
<clipPath id="clip0_102_656">
<rect width="203" height="288" rx="10" fill="white"/>
</clipPath>
</defs>
</svg>
