<svg width="203" height="288" viewBox="0 0 203 288" fill="none" xmlns="http://www.w3.org/2000/svg">
<g clip-path="url(#clip0_102_658)">
<rect width="203" height="288" rx="10" fill="white"/>
<path d="M8.95166 35.936C8.95166 35.0352 9.57227 34.4546 10.4331 34.4546C10.9736 34.4546 11.394 34.6948 12.1348 35.4155C13.5962 36.8569 15.0776 37.5176 16.9194 37.5176C21.4438 37.5176 23.7461 33.3735 23.7461 26.1665H23.5659C22.5649 28.8691 20.0024 30.4907 16.7393 30.4907C11.6143 30.4907 8.05078 26.7271 8.05078 21.3218C8.05078 15.7563 11.8345 12.0527 17.52 12.0527C23.7861 12.0527 27.1294 16.9375 27.1294 26.0063C27.1294 35.5557 23.666 40.5205 16.9795 40.5205C14.7773 40.5205 12.6953 39.96 11.1338 38.939C9.79248 38.0581 8.95166 36.937 8.95166 35.936ZM23.1455 21.4019C23.1455 17.6582 20.7832 15.0957 17.3198 15.0957C13.8765 15.0957 11.5142 17.6582 11.5142 21.3818C11.5142 25.0254 13.8364 27.4678 17.3198 27.4678C20.8232 27.4678 23.1455 25.0454 23.1455 21.4019Z" fill="#BC1E24"/>
<path d="M13.7347 49.0006C16.4518 49.042 17.5069 51.3984 17.8537 52.5094C17.8888 52.6218 18.1122 52.6217 18.1472 52.5093C18.4938 51.3983 19.5482 49.042 22.2653 49.0006C25.8229 48.9462 28.4995 52.9292 26.0587 56.9289C23.8832 60.4939 18.0821 67 18 67C17.9165 67 12.1169 60.4943 9.94127 56.9289C7.50053 52.9291 10.177 48.9462 13.7347 49.0006Z" fill="#BC1E24"/>
<path d="M194.048 252.064C194.048 252.965 193.428 253.545 192.567 253.545C192.026 253.545 191.606 253.305 190.865 252.584C189.404 251.143 187.922 250.482 186.081 250.482C181.556 250.482 179.254 254.626 179.254 261.833L179.434 261.833C180.435 259.131 182.998 257.509 186.261 257.509C191.386 257.509 194.949 261.273 194.949 266.678C194.949 272.244 191.166 275.947 185.48 275.947C179.214 275.947 175.871 271.062 175.871 261.994C175.871 252.444 179.334 247.479 186.021 247.479C188.223 247.479 190.305 248.04 191.866 249.061C193.208 249.942 194.048 251.063 194.048 252.064ZM179.854 266.598C179.854 270.342 182.217 272.904 185.68 272.904C189.124 272.904 191.486 270.342 191.486 266.618C191.486 262.975 189.164 260.532 185.68 260.532C182.177 260.532 179.854 262.955 179.854 266.598Z" fill="#BC1E24"/>
<path d="M189.265 238.999C186.548 238.958 185.493 236.602 185.146 235.491C185.111 235.378 184.888 235.378 184.853 235.491C184.506 236.602 183.452 238.958 180.735 238.999C177.177 239.054 174.501 235.071 176.941 231.071C179.117 227.506 184.918 221 185 221C185.083 221 190.883 227.506 193.059 231.071C195.499 235.071 192.823 239.054 189.265 238.999Z" fill="#BC1E24"/>
<path d="M47.2207 26.2513C53.7689 26.3516 56.3116 32.0461 57.1476 34.731C57.2321 35.0026 57.7704 35.0025 57.8549 34.7309C58.6901 32.0459 61.2313 26.3516 67.7794 26.2513C76.3533 26.1199 82.8039 35.7455 76.9216 45.4114C71.6786 54.0268 57.6979 69.75 57.5 69.7499C57.2989 69.7499 43.3219 54.0277 38.0785 45.4114C32.1963 35.7454 38.6467 26.1199 47.2207 26.2513Z" fill="#BC1E24"/>
<path d="M47.2207 197.749C53.7689 197.648 56.3116 191.954 57.1476 189.269C57.2321 188.997 57.7704 188.998 57.8549 189.269C58.6901 191.954 61.2313 197.648 67.7794 197.749C76.3533 197.88 82.8039 188.255 76.9216 178.589C71.6786 169.973 57.6979 154.25 57.5 154.25C57.2989 154.25 43.3219 169.972 38.0785 178.589C32.1963 188.255 38.6467 197.88 47.2207 197.749Z" fill="#BC1E24"/>
<path d="M135.221 26.2513C141.769 26.3516 144.312 32.0461 145.148 34.731C145.232 35.0026 145.77 35.0025 145.855 34.7309C146.69 32.0459 149.231 26.3516 155.779 26.2513C164.353 26.1199 170.804 35.7455 164.922 45.4114C159.679 54.0268 145.698 69.75 145.5 69.7499C145.299 69.7499 131.322 54.0277 126.079 45.4114C120.196 35.7454 126.647 26.1199 135.221 26.2513Z" fill="#BC1E24"/>
<path d="M47.2207 90.2513C53.7689 90.3516 56.3116 96.0461 57.1476 98.731C57.2321 99.0026 57.7704 99.0025 57.8549 98.7309C58.6901 96.0459 61.2313 90.3516 67.7794 90.2513C76.3533 90.1199 82.8039 99.7455 76.9216 109.411C71.6786 118.027 57.6979 133.75 57.5 133.75C57.2989 133.75 43.3219 118.028 38.0785 109.411C32.1963 99.7454 38.6467 90.1199 47.2207 90.2513Z" fill="#BC1E24"/>
<path d="M47.2207 261.749C53.7689 261.648 56.3116 255.954 57.1476 253.269C57.2321 252.997 57.7704 252.998 57.8549 253.269C58.6901 255.954 61.2313 261.648 67.7794 261.749C76.3533 261.88 82.8039 252.255 76.9216 242.589C71.6786 233.973 57.6979 218.25 57.5 218.25C57.2989 218.25 43.3219 233.972 38.0785 242.589C32.1963 252.255 38.6467 261.88 47.2207 261.749Z" fill="#BC1E24"/>
<path d="M135.221 90.2513C141.769 90.3516 144.312 96.0461 145.148 98.731C145.232 99.0026 145.77 99.0025 145.855 98.7309C146.69 96.0459 149.231 90.3516 155.779 90.2513C164.353 90.1199 170.804 99.7455 164.922 109.411C159.679 118.027 145.698 133.75 145.5 133.75C145.299 133.75 131.322 118.028 126.079 109.411C120.196 99.7454 126.647 90.1199 135.221 90.2513Z" fill="#BC1E24"/>
<path d="M91.2207 122.251C97.7689 122.352 100.312 128.046 101.148 130.731C101.232 131.003 101.77 131.002 101.855 130.731C102.69 128.046 105.231 122.352 111.779 122.251C120.353 122.12 126.804 131.745 120.922 141.411C115.679 150.027 101.698 165.75 101.5 165.75C101.299 165.75 87.3219 150.028 82.0785 141.411C76.1963 131.745 82.6467 122.12 91.2207 122.251Z" fill="#BC1E24"/>
<path d="M135.221 261.749C141.769 261.648 144.312 255.954 145.148 253.269C145.232 252.997 145.77 252.998 145.855 253.269C146.69 255.954 149.231 261.648 155.779 261.749C164.353 261.88 170.804 252.255 164.922 242.589C159.679 233.973 145.698 218.25 145.5 218.25C145.299 218.25 131.322 233.972 126.079 242.589C120.196 252.255 126.647 261.88 135.221 261.749Z" fill="#BC1E24"/>
<path d="M135.221 197.749C141.769 197.648 144.312 191.954 145.148 189.269C145.232 188.997 145.77 188.998 145.855 189.269C146.69 191.954 149.231 197.648 155.779 197.749C164.353 197.88 170.804 188.255 164.922 178.589C159.679 169.973 145.698 154.25 145.5 154.25C145.299 154.25 131.322 169.972 126.079 178.589C120.196 188.255 126.647 197.88 135.221 197.749Z" fill="#BC1E24"/>
</g>
<defs>
<clipPath id="clip0_102_658">
<rect width="203" height="288" rx="10" fill="white"/>
</clipPath>
</defs>
</svg>
