<svg width="203" height="288" viewBox="0 0 203 288" fill="none" xmlns="http://www.w3.org/2000/svg">
<g clip-path="url(#clip0_102_650)">
<rect width="203" height="288" rx="10" fill="white"/>
<path d="M8.19092 40.2603C7.18994 40.2603 6.5293 39.6797 6.5293 38.7588C6.5293 38.3584 6.62939 37.978 6.78955 37.4976L15.0176 14.4951C15.5181 13.0938 16.2188 12.4531 17.5 12.4531C18.7812 12.4531 19.4819 13.0938 19.9824 14.4951L28.2104 37.4976C28.3706 37.938 28.4707 38.3584 28.4707 38.7388C28.4707 39.6797 27.8101 40.2603 26.7891 40.2603C25.8281 40.2603 25.2876 39.7998 24.9072 38.6187L22.605 31.792H12.375L10.0728 38.6187C9.69238 39.8198 9.15186 40.2603 8.19092 40.2603ZM13.3159 28.9692H21.6641L17.5601 16.7974H17.4199L13.3159 28.9692Z" fill="#BC1E24"/>
<path d="M13.7347 49.0006C16.4518 49.042 17.5069 51.3984 17.8537 52.5094C17.8888 52.6218 18.1122 52.6217 18.1472 52.5093C18.4938 51.3983 19.5482 49.042 22.2653 49.0006C25.8229 48.9462 28.4995 52.9292 26.0587 56.9289C23.8832 60.4939 18.0821 67 18 67C17.9165 67 12.1169 60.4943 9.94127 56.9289C7.50053 52.9291 10.177 48.9462 13.7347 49.0006Z" fill="#BC1E24"/>
<path d="M194.809 247.74C195.81 247.74 196.471 248.32 196.471 249.241C196.471 249.642 196.371 250.022 196.21 250.502L187.982 273.505C187.482 274.906 186.781 275.547 185.5 275.547C184.219 275.547 183.518 274.906 183.018 273.505L174.79 250.502C174.629 250.062 174.529 249.642 174.529 249.261C174.529 248.32 175.19 247.74 176.211 247.74C177.172 247.74 177.712 248.2 178.093 249.381L180.395 256.208L190.625 256.208L192.927 249.381C193.308 248.18 193.848 247.74 194.809 247.74ZM189.684 259.031L181.336 259.031L185.44 271.203L185.58 271.203L189.684 259.031Z" fill="#BC1E24"/>
<path d="M189.265 238.999C186.548 238.958 185.493 236.602 185.146 235.491C185.111 235.378 184.888 235.378 184.853 235.491C184.506 236.602 183.452 238.958 180.735 238.999C177.177 239.054 174.501 235.071 176.941 231.071C179.117 227.506 184.918 221 185 221C185.083 221 190.883 227.506 193.059 231.071C195.499 235.071 192.823 239.054 189.265 238.999Z" fill="#BC1E24"/>
<path d="M91.2207 122.251C97.7689 122.352 100.312 128.046 101.148 130.731C101.232 131.003 101.77 131.002 101.855 130.731C102.69 128.046 105.231 122.352 111.779 122.251C120.353 122.12 126.804 131.745 120.922 141.411C115.679 150.027 101.698 165.75 101.5 165.75C101.299 165.75 87.3219 150.028 82.0785 141.411C76.1963 131.745 82.6467 122.12 91.2207 122.251Z" fill="#BC1E24"/>
</g>
<defs>
<clipPath id="clip0_102_650">
<rect width="203" height="288" rx="10" fill="white"/>
</clipPath>
</defs>
</svg>
