<svg width="203" height="288" viewBox="0 0 203 288" fill="none" xmlns="http://www.w3.org/2000/svg">
<g clip-path="url(#clip0_102_672)">
<rect width="203" height="288" rx="10" fill="white"/>
<path d="M7.47871 40.2002C6.39766 40.2002 5.73701 39.4595 5.73701 38.2783V14.395C5.73701 13.2139 6.39766 12.4731 7.47871 12.4731C8.55977 12.4731 9.24043 13.2139 9.24043 14.395V38.2783C9.24043 39.4595 8.55977 40.2002 7.47871 40.2002ZM10.2454 26.8672V25.8662C10.2454 17.5781 13.7889 12.0928 19.9749 12.0928C26.1609 12.0928 29.6844 17.5781 29.6844 25.8662V26.8672C29.6844 35.1353 26.1409 40.5806 19.9549 40.5806C13.7889 40.5806 10.2454 35.1553 10.2454 26.8672ZM13.7488 25.8862V26.8271C13.7488 33.4937 16.1312 37.5576 19.9749 37.5576C23.8187 37.5576 26.201 33.4937 26.201 26.8271V25.8862C26.201 19.2197 23.7986 15.1357 19.9549 15.1357C16.1312 15.1357 13.7488 19.2197 13.7488 25.8862Z" fill="#211C1D"/>
<path d="M16.2375 68C16.0275 68 15.8572 67.8365 15.8572 67.6348C15.8572 67.2053 16.9342 64.3825 17.1943 62.4832C17.2256 62.2548 16.9357 62.1637 16.8047 62.3495C16.177 63.2399 15.5441 64.1922 13.8225 64.2149C10.615 64.2572 8.76719 61.2101 9.77613 58.4373C10.2708 57.0778 17.0754 48 18 48C18.9245 48 25.7292 57.0778 26.2239 58.4373C27.2328 61.2101 25.385 64.2572 22.1775 64.2149C20.4559 64.1922 19.823 63.2399 19.1953 62.3495C19.0643 62.1637 18.7744 62.2548 18.8057 62.4832C19.0658 64.3825 20.1428 67.2053 20.1428 67.6348C20.1428 67.8365 19.9725 68 19.7625 68H16.2375Z" fill="#211C1D"/>
<path d="M195.521 247.8C196.602 247.8 197.263 248.541 197.263 249.722L197.263 273.605C197.263 274.786 196.602 275.527 195.521 275.527C194.44 275.527 193.76 274.786 193.76 273.605L193.76 249.722C193.76 248.541 194.44 247.8 195.521 247.8ZM192.755 261.133L192.755 262.134C192.755 270.422 189.211 275.907 183.025 275.907C176.839 275.907 173.316 270.422 173.316 262.134L173.316 261.133C173.316 252.865 176.859 247.419 183.045 247.419C189.211 247.419 192.755 252.845 192.755 261.133ZM189.251 262.114L189.251 261.173C189.251 254.506 186.869 250.442 183.025 250.442C179.181 250.442 176.799 254.506 176.799 261.173L176.799 262.114C176.799 268.78 179.201 272.864 183.045 272.864C186.869 272.864 189.251 268.78 189.251 262.114Z" fill="#211C1D"/>
<path d="M186.762 220C186.973 220 187.143 220.164 187.143 220.365C187.143 220.795 186.066 223.617 185.806 225.517C185.774 225.745 186.064 225.836 186.195 225.65C186.823 224.76 187.456 223.808 189.178 223.785C192.385 223.743 194.233 226.79 193.224 229.563C192.729 230.922 185.925 240 185 240C184.075 240 177.271 230.922 176.776 229.563C175.767 226.79 177.615 223.743 180.823 223.785C182.544 223.808 183.177 224.76 183.805 225.65C183.936 225.836 184.226 225.745 184.194 225.517C183.934 223.617 182.857 220.795 182.857 220.365C182.857 220.164 183.027 220 183.238 220L186.762 220Z" fill="#211C1D"/>
<path d="M53.353 72C52.8588 72 52.4582 71.6076 52.4582 71.1235C52.4582 70.0926 54.9923 63.318 55.6043 58.7596C55.6779 58.2115 54.9958 57.993 54.6876 58.4389C53.2105 60.5759 51.7215 62.8613 47.6706 62.9157C40.1234 63.0172 35.7757 55.7041 38.1497 49.0496C39.3137 45.7867 55.3245 24 57.5 24C59.6754 24 75.6864 45.7867 76.8503 49.0496C79.2243 55.7041 74.8766 63.0172 67.3294 62.9157C63.2785 62.8613 61.7895 60.5759 60.3124 58.4389C60.0042 57.993 59.3221 58.2115 59.3957 58.7596C60.0077 63.318 62.5418 70.0926 62.5418 71.1235C62.5418 71.6076 62.1412 72 61.647 72H53.353Z" fill="#211C1D"/>
<path d="M53.353 152C52.8588 152 52.4582 152.392 52.4582 152.877C52.4582 153.907 54.9923 160.682 55.6043 165.24C55.6779 165.789 54.9958 166.007 54.6876 165.561C53.2105 163.424 51.7215 161.139 47.6706 161.084C40.1234 160.983 35.7757 168.296 38.1497 174.95C39.3137 178.213 55.3245 200 57.5 200C59.6754 200 75.6864 178.213 76.8503 174.95C79.2243 168.296 74.8766 160.983 67.3294 161.084C63.2785 161.139 61.7895 163.424 60.3124 165.561C60.0042 166.007 59.3221 165.789 59.3957 165.24C60.0077 160.682 62.5418 153.907 62.5418 152.877C62.5418 152.392 62.1412 152 61.647 152H53.353Z" fill="#211C1D"/>
<path d="M141.353 72C140.859 72 140.458 71.6076 140.458 71.1235C140.458 70.0926 142.992 63.318 143.604 58.7596C143.678 58.2115 142.996 57.993 142.688 58.4389C141.211 60.5759 139.721 62.8613 135.671 62.9157C128.123 63.0172 123.776 55.7041 126.15 49.0496C127.314 45.7867 143.325 24 145.5 24C147.675 24 163.686 45.7867 164.85 49.0496C167.224 55.7041 162.877 63.0172 155.329 62.9157C151.279 62.8613 149.789 60.5759 148.312 58.4389C148.004 57.993 147.322 58.2115 147.396 58.7596C148.008 63.318 150.542 70.0926 150.542 71.1235C150.542 71.6076 150.141 72 149.647 72H141.353Z" fill="#211C1D"/>
<path d="M53.353 136C52.8588 136 52.4582 135.608 52.4582 135.123C52.4582 134.093 54.9923 127.318 55.6043 122.76C55.6779 122.211 54.9958 121.993 54.6876 122.439C53.2105 124.576 51.7215 126.861 47.6706 126.916C40.1234 127.017 35.7757 119.704 38.1497 113.05C39.3137 109.787 55.3245 88 57.5 88C59.6754 88 75.6864 109.787 76.8503 113.05C79.2243 119.704 74.8766 127.017 67.3294 126.916C63.2785 126.861 61.7895 124.576 60.3124 122.439C60.0042 121.993 59.3221 122.211 59.3957 122.76C60.0077 127.318 62.5418 134.093 62.5418 135.123C62.5418 135.608 62.1412 136 61.647 136H53.353Z" fill="#211C1D"/>
<path d="M53.353 216C52.8588 216 52.4582 216.392 52.4582 216.877C52.4582 217.907 54.9923 224.682 55.6043 229.24C55.6779 229.789 54.9958 230.007 54.6876 229.561C53.2105 227.424 51.7215 225.139 47.6706 225.084C40.1234 224.983 35.7757 232.296 38.1497 238.95C39.3137 242.213 55.3245 264 57.5 264C59.6754 264 75.6864 242.213 76.8503 238.95C79.2243 232.296 74.8766 224.983 67.3294 225.084C63.2785 225.139 61.7895 227.424 60.3124 229.561C60.0042 230.007 59.3221 229.789 59.3957 229.24C60.0077 224.682 62.5418 217.907 62.5418 216.877C62.5418 216.392 62.1412 216 61.647 216H53.353Z" fill="#211C1D"/>
<path d="M141.353 136C140.859 136 140.458 135.608 140.458 135.123C140.458 134.093 142.992 127.318 143.604 122.76C143.678 122.211 142.996 121.993 142.688 122.439C141.211 124.576 139.721 126.861 135.671 126.916C128.123 127.017 123.776 119.704 126.15 113.05C127.314 109.787 143.325 88 145.5 88C147.675 88 163.686 109.787 164.85 113.05C167.224 119.704 162.877 127.017 155.329 126.916C151.279 126.861 149.789 124.576 148.312 122.439C148.004 121.993 147.322 122.211 147.396 122.76C148.008 127.318 150.542 134.093 150.542 135.123C150.542 135.608 150.141 136 149.647 136H141.353Z" fill="#211C1D"/>
<path d="M97.353 104C96.8588 104 96.4582 103.608 96.4582 103.123C96.4582 102.093 98.9923 95.318 99.6043 90.7596C99.6779 90.2115 98.9958 89.993 98.6876 90.4389C97.2105 92.5759 95.7215 94.8613 91.6706 94.9157C84.1234 95.0172 79.7757 87.7041 82.1497 81.0496C83.3137 77.7867 99.3245 56 101.5 56C103.675 56 119.686 77.7867 120.85 81.0496C123.224 87.7041 118.877 95.0172 111.329 94.9157C107.279 94.8613 105.789 92.5759 104.312 90.4389C104.004 89.993 103.322 90.2115 103.396 90.7596C104.008 95.318 106.542 102.093 106.542 103.123C106.542 103.608 106.141 104 105.647 104H97.353Z" fill="#211C1D"/>
<path d="M97.353 184C96.8588 184 96.4582 184.392 96.4582 184.877C96.4582 185.907 98.9923 192.682 99.6043 197.24C99.6779 197.789 98.9958 198.007 98.6876 197.561C97.2105 195.424 95.7215 193.139 91.6706 193.084C84.1234 192.983 79.7757 200.296 82.1497 206.95C83.3137 210.213 99.3245 232 101.5 232C103.675 232 119.686 210.213 120.85 206.95C123.224 200.296 118.877 192.983 111.329 193.084C107.279 193.139 105.789 195.424 104.312 197.561C104.004 198.007 103.322 197.789 103.396 197.24C104.008 192.682 106.542 185.907 106.542 184.877C106.542 184.392 106.141 184 105.647 184H97.353Z" fill="#211C1D"/>
<path d="M141.353 216C140.859 216 140.458 216.392 140.458 216.877C140.458 217.907 142.992 224.682 143.604 229.24C143.678 229.789 142.996 230.007 142.688 229.561C141.211 227.424 139.721 225.139 135.671 225.084C128.123 224.983 123.776 232.296 126.15 238.95C127.314 242.213 143.325 264 145.5 264C147.675 264 163.686 242.213 164.85 238.95C167.224 232.296 162.877 224.983 155.329 225.084C151.279 225.139 149.789 227.424 148.312 229.561C148.004 230.007 147.322 229.789 147.396 229.24C148.008 224.682 150.542 217.907 150.542 216.877C150.542 216.392 150.141 216 149.647 216H141.353Z" fill="#211C1D"/>
<path d="M141.353 152C140.859 152 140.458 152.392 140.458 152.877C140.458 153.907 142.992 160.682 143.604 165.24C143.678 165.789 142.996 166.007 142.688 165.561C141.211 163.424 139.721 161.139 135.671 161.084C128.123 160.983 123.776 168.296 126.15 174.95C127.314 178.213 143.325 200 145.5 200C147.675 200 163.686 178.213 164.85 174.95C167.224 168.296 162.877 160.983 155.329 161.084C151.279 161.139 149.789 163.424 148.312 165.561C148.004 166.007 147.322 165.789 147.396 165.24C148.008 160.682 150.542 153.907 150.542 152.877C150.542 152.392 150.141 152 149.647 152H141.353Z" fill="#211C1D"/>
</g>
<defs>
<clipPath id="clip0_102_672">
<rect width="203" height="288" rx="10" fill="white"/>
</clipPath>
</defs>
</svg>
