<svg width="203" height="288" viewBox="0 0 203 288" fill="none" xmlns="http://www.w3.org/2000/svg">
<g clip-path="url(#clip0_102_664)">
<rect width="203" height="288" rx="10" fill="white"/>
<path d="M9.23193 38.1382C9.23193 37.4175 9.57227 36.8569 10.7534 35.5156L19.0815 25.9863C21.3438 23.4038 22.2046 21.7222 22.2046 19.8403C22.2046 17.0176 20.1826 15.1357 17.1396 15.1357C14.5571 15.1357 12.6553 16.6772 12.0547 19.2798C11.7744 20.3408 11.2139 20.8813 10.3931 20.8813C9.41211 20.8813 8.77148 20.1406 8.77148 19.0596C8.77148 15.6562 12.0747 12.0928 17.3599 12.0928C22.2847 12.0928 25.748 15.2158 25.748 19.6201C25.748 22.2227 24.7271 24.1245 21.1235 28.2285L13.7163 36.6968V36.937H24.8271C25.8882 36.937 26.5688 37.5176 26.5688 38.4785C26.5688 39.4194 25.9282 40 24.8271 40H11.6143C10.1528 40 9.23193 39.2993 9.23193 38.1382Z" fill="#211C1D"/>
<path d="M16.2375 68C16.0275 68 15.8572 67.8365 15.8572 67.6348C15.8572 67.2053 16.9342 64.3825 17.1943 62.4832C17.2256 62.2548 16.9357 62.1637 16.8047 62.3495C16.177 63.2399 15.5441 64.1922 13.8225 64.2149C10.615 64.2572 8.76719 61.2101 9.77613 58.4373C10.2708 57.0778 17.0754 48 18 48C18.9245 48 25.7292 57.0778 26.2239 58.4373C27.2328 61.2101 25.385 64.2572 22.1775 64.2149C20.4559 64.1922 19.823 63.2399 19.1953 62.3495C19.0643 62.1637 18.7744 62.2548 18.8057 62.4832C19.0658 64.3825 20.1428 67.2053 20.1428 67.6348C20.1428 67.8365 19.9725 68 19.7625 68H16.2375Z" fill="#211C1D"/>
<path d="M193.768 249.862C193.768 250.583 193.428 251.143 192.247 252.484L183.918 262.014C181.656 264.596 180.795 266.278 180.795 268.16C180.795 270.982 182.817 272.864 185.86 272.864C188.443 272.864 190.345 271.323 190.945 268.72C191.226 267.659 191.786 267.119 192.607 267.119C193.588 267.119 194.229 267.859 194.229 268.94C194.229 272.344 190.925 275.907 185.64 275.907C180.715 275.907 177.252 272.784 177.252 268.38C177.252 265.777 178.273 263.875 181.876 259.771L189.284 251.303L189.284 251.063L178.173 251.063C177.112 251.063 176.431 250.482 176.431 249.521C176.431 248.581 177.072 248 178.173 248L191.386 248C192.847 248 193.768 248.701 193.768 249.862Z" fill="#211C1D"/>
<path d="M186.762 220C186.973 220 187.143 220.164 187.143 220.365C187.143 220.795 186.066 223.617 185.806 225.517C185.774 225.745 186.064 225.836 186.195 225.65C186.823 224.76 187.456 223.808 189.178 223.785C192.385 223.743 194.233 226.79 193.224 229.563C192.729 230.922 185.925 240 185 240C184.075 240 177.271 230.922 176.776 229.563C175.767 226.79 177.615 223.743 180.823 223.785C182.544 223.808 183.177 224.76 183.805 225.65C183.936 225.836 184.226 225.745 184.194 225.517C183.934 223.617 182.857 220.795 182.857 220.365C182.857 220.164 183.027 220 183.238 220L186.762 220Z" fill="#211C1D"/>
<path d="M97.353 72C96.8588 72 96.4582 71.6076 96.4582 71.1235C96.4582 70.0926 98.9923 63.318 99.6043 58.7596C99.6779 58.2115 98.9958 57.993 98.6876 58.4389C97.2105 60.5759 95.7215 62.8613 91.6706 62.9157C84.1234 63.0172 79.7757 55.7041 82.1497 49.0496C83.3137 45.7867 99.3245 24 101.5 24C103.675 24 119.686 45.7867 120.85 49.0496C123.224 55.7041 118.877 63.0172 111.329 62.9157C107.279 62.8613 105.789 60.5759 104.312 58.4389C104.004 57.993 103.322 58.2115 103.396 58.7596C104.008 63.318 106.542 70.0926 106.542 71.1235C106.542 71.6076 106.141 72 105.647 72H97.353Z" fill="#211C1D"/>
<path d="M97.353 216C96.8588 216 96.4582 216.392 96.4582 216.877C96.4582 217.907 98.9923 224.682 99.6043 229.24C99.6779 229.789 98.9958 230.007 98.6876 229.561C97.2105 227.424 95.7215 225.139 91.6706 225.084C84.1234 224.983 79.7757 232.296 82.1497 238.95C83.3137 242.213 99.3245 264 101.5 264C103.675 264 119.686 242.213 120.85 238.95C123.224 232.296 118.877 224.983 111.329 225.084C107.279 225.139 105.789 227.424 104.312 229.561C104.004 230.007 103.322 229.789 103.396 229.24C104.008 224.682 106.542 217.907 106.542 216.877C106.542 216.392 106.141 216 105.647 216H97.353Z" fill="#211C1D"/>
</g>
<defs>
<clipPath id="clip0_102_664">
<rect width="203" height="288" rx="10" fill="white"/>
</clipPath>
</defs>
</svg>
