<svg width="203" height="288" viewBox="0 0 203 288" fill="none" xmlns="http://www.w3.org/2000/svg">
<g clip-path="url(#clip0_102_666)">
<rect width="203" height="288" rx="10" fill="white"/>
<path d="M20.4634 38.3784V34.3145H9.93311C8.37158 34.3145 7.33057 33.4937 7.33057 32.1724C7.33057 31.4316 7.5708 30.731 8.27148 29.4497C11.1343 24.3848 12.936 21.502 17.4805 14.6953C18.6616 12.9536 19.5825 12.353 20.9639 12.353C22.7856 12.353 23.8066 13.394 23.8066 15.2559V31.2515H25.8887C27.0098 31.2515 27.6704 31.812 27.6704 32.793C27.6704 33.7539 27.0298 34.3145 25.8887 34.3145H23.8066V38.3784C23.8066 39.5396 23.2061 40.2002 22.125 40.2002C21.064 40.2002 20.4634 39.5396 20.4634 38.3784ZM10.6938 31.2515H20.4634V15.7563H20.2832C16.8799 20.7812 13.3164 26.5068 10.6938 31.0513V31.2515Z" fill="#211C1D"/>
<path d="M16.2375 68C16.0275 68 15.8572 67.8365 15.8572 67.6348C15.8572 67.2053 16.9342 64.3825 17.1943 62.4832C17.2256 62.2548 16.9357 62.1637 16.8047 62.3495C16.177 63.2399 15.5441 64.1922 13.8225 64.2149C10.615 64.2572 8.76719 61.2101 9.77613 58.4373C10.2708 57.0778 17.0754 48 18 48C18.9245 48 25.7292 57.0778 26.2239 58.4373C27.2328 61.2101 25.385 64.2572 22.1775 64.2149C20.4559 64.1922 19.823 63.2399 19.1953 62.3495C19.0643 62.1637 18.7744 62.2548 18.8057 62.4832C19.0658 64.3825 20.1428 67.2053 20.1428 67.6348C20.1428 67.8365 19.9725 68 19.7625 68H16.2375Z" fill="#211C1D"/>
<path d="M182.537 249.622L182.537 253.686L193.067 253.686C194.628 253.686 195.669 254.506 195.669 255.828C195.669 256.568 195.429 257.269 194.729 258.55C191.866 263.615 190.064 266.498 185.52 273.305C184.338 275.046 183.417 275.647 182.036 275.647C180.214 275.647 179.193 274.606 179.193 272.744L179.193 256.749L177.111 256.749C175.99 256.749 175.33 256.188 175.33 255.207C175.33 254.246 175.97 253.686 177.111 253.686L179.193 253.686L179.193 249.622C179.193 248.46 179.794 247.8 180.875 247.8C181.936 247.8 182.537 248.46 182.537 249.622ZM192.306 256.749L182.537 256.749L182.537 272.244L182.717 272.244C186.12 267.219 189.684 261.493 192.306 256.949L192.306 256.749Z" fill="#211C1D"/>
<path d="M186.762 220C186.973 220 187.143 220.164 187.143 220.365C187.143 220.795 186.066 223.617 185.806 225.517C185.774 225.745 186.064 225.836 186.195 225.65C186.823 224.76 187.456 223.808 189.178 223.785C192.385 223.743 194.233 226.79 193.224 229.563C192.729 230.922 185.925 240 185 240C184.075 240 177.271 230.922 176.776 229.563C175.767 226.79 177.615 223.743 180.823 223.785C182.544 223.808 183.177 224.76 183.805 225.65C183.936 225.836 184.226 225.745 184.194 225.517C183.934 223.617 182.857 220.795 182.857 220.365C182.857 220.164 183.027 220 183.238 220L186.762 220Z" fill="#211C1D"/>
<path d="M53.353 72C52.8588 72 52.4582 71.6076 52.4582 71.1235C52.4582 70.0926 54.9923 63.318 55.6043 58.7596C55.6779 58.2115 54.9958 57.993 54.6876 58.4389C53.2105 60.5759 51.7215 62.8613 47.6706 62.9157C40.1234 63.0172 35.7757 55.7041 38.1497 49.0496C39.3137 45.7867 55.3245 24 57.5 24C59.6754 24 75.6864 45.7867 76.8503 49.0496C79.2243 55.7041 74.8766 63.0172 67.3294 62.9157C63.2785 62.8613 61.7895 60.5759 60.3124 58.4389C60.0042 57.993 59.3221 58.2115 59.3957 58.7596C60.0077 63.318 62.5418 70.0926 62.5418 71.1235C62.5418 71.6076 62.1412 72 61.647 72H53.353Z" fill="#211C1D"/>
<path d="M53.353 216C52.8588 216 52.4582 216.392 52.4582 216.877C52.4582 217.907 54.9923 224.682 55.6043 229.24C55.6779 229.789 54.9958 230.007 54.6876 229.561C53.2105 227.424 51.7215 225.139 47.6706 225.084C40.1234 224.983 35.7757 232.296 38.1497 238.95C39.3137 242.213 55.3245 264 57.5 264C59.6754 264 75.6864 242.213 76.8503 238.95C79.2243 232.296 74.8766 224.983 67.3294 225.084C63.2785 225.139 61.7895 227.424 60.3124 229.561C60.0042 230.007 59.3221 229.789 59.3957 229.24C60.0077 224.682 62.5418 217.907 62.5418 216.877C62.5418 216.392 62.1412 216 61.647 216H53.353Z" fill="#211C1D"/>
<path d="M141.353 72C140.859 72 140.458 71.6076 140.458 71.1235C140.458 70.0926 142.992 63.318 143.604 58.7596C143.678 58.2115 142.996 57.993 142.688 58.4389C141.211 60.5759 139.721 62.8613 135.671 62.9157C128.123 63.0172 123.776 55.7041 126.15 49.0496C127.314 45.7867 143.325 24 145.5 24C147.675 24 163.686 45.7867 164.85 49.0496C167.224 55.7041 162.877 63.0172 155.329 62.9157C151.279 62.8613 149.789 60.5759 148.312 58.4389C148.004 57.993 147.322 58.2115 147.396 58.7596C148.008 63.318 150.542 70.0926 150.542 71.1235C150.542 71.6076 150.141 72 149.647 72H141.353Z" fill="#211C1D"/>
<path d="M141.353 216C140.859 216 140.458 216.392 140.458 216.877C140.458 217.907 142.992 224.682 143.604 229.24C143.678 229.789 142.996 230.007 142.688 229.561C141.211 227.424 139.721 225.139 135.671 225.084C128.123 224.983 123.776 232.296 126.15 238.95C127.314 242.213 143.325 264 145.5 264C147.675 264 163.686 242.213 164.85 238.95C167.224 232.296 162.877 224.983 155.329 225.084C151.279 225.139 149.789 227.424 148.312 229.561C148.004 230.007 147.322 229.789 147.396 229.24C148.008 224.682 150.542 217.907 150.542 216.877C150.542 216.392 150.141 216 149.647 216H141.353Z" fill="#211C1D"/>
</g>
<defs>
<clipPath id="clip0_102_666">
<rect width="203" height="288" rx="10" fill="white"/>
</clipPath>
</defs>
</svg>
