<svg width="203" height="288" viewBox="0 0 203 288" fill="none" xmlns="http://www.w3.org/2000/svg">
<g clip-path="url(#clip0_102_668)">
<rect width="203" height="288" rx="10" fill="white"/>
<path d="M8.03076 27.1274C8.03076 17.498 11.7344 12.1528 18.3809 12.1528C20.5229 12.1528 22.585 12.7334 24.1064 13.7744C25.4277 14.6353 26.2285 15.7363 26.2285 16.6572C26.2285 17.5181 25.6079 18.1587 24.7471 18.1587C24.1865 18.1587 23.7661 17.9385 23.0454 17.2378C21.604 15.8164 20.1025 15.1758 18.3208 15.1758C13.8564 15.1758 11.4941 19.0996 11.4341 26.5869H11.5942C12.5151 24.1445 15.3779 22.4229 18.501 22.4229C23.5859 22.4229 27.1494 26.0864 27.1494 31.3115C27.1494 36.8169 23.3857 40.5605 17.8203 40.5605C14.437 40.5605 11.7344 39.1592 10.0928 36.5767C8.71143 34.3745 8.03076 31.2715 8.03076 27.1274ZM11.9346 31.4316C11.9346 35.0151 14.417 37.5576 17.9604 37.5576C21.4038 37.5576 23.7061 35.1353 23.7061 31.4517C23.7061 27.8081 21.3838 25.4058 17.8203 25.4058C14.3569 25.4058 11.9346 27.8882 11.9346 31.4316Z" fill="#211C1D"/>
<path d="M16.2375 68C16.0275 68 15.8572 67.8365 15.8572 67.6348C15.8572 67.2053 16.9342 64.3825 17.1943 62.4832C17.2256 62.2548 16.9357 62.1637 16.8047 62.3495C16.177 63.2399 15.5441 64.1922 13.8225 64.2149C10.615 64.2572 8.76719 61.2101 9.77613 58.4373C10.2708 57.0778 17.0754 48 18 48C18.9245 48 25.7292 57.0778 26.2239 58.4373C27.2328 61.2101 25.385 64.2572 22.1775 64.2149C20.4559 64.1922 19.823 63.2399 19.1953 62.3495C19.0643 62.1637 18.7744 62.2548 18.8057 62.4832C19.0658 64.3825 20.1428 67.2053 20.1428 67.6348C20.1428 67.8365 19.9725 68 19.7625 68H16.2375Z" fill="#211C1D"/>
<path d="M194.969 260.873C194.969 270.502 191.266 275.847 184.619 275.847C182.477 275.847 180.415 275.267 178.894 274.226C177.572 273.365 176.771 272.264 176.771 271.343C176.771 270.482 177.392 269.841 178.253 269.841C178.813 269.841 179.234 270.062 179.955 270.762C181.396 272.184 182.897 272.824 184.679 272.824C189.144 272.824 191.506 268.9 191.566 261.413L191.406 261.413C190.485 263.855 187.622 265.577 184.499 265.577C179.414 265.577 175.851 261.914 175.851 256.688C175.851 251.183 179.614 247.439 185.18 247.439C188.563 247.439 191.266 248.841 192.907 251.423C194.289 253.625 194.969 256.729 194.969 260.873ZM191.065 256.568C191.065 252.985 188.583 250.442 185.04 250.442C181.596 250.442 179.294 252.865 179.294 256.548C179.294 260.192 181.616 262.594 185.18 262.594C188.643 262.594 191.065 260.112 191.065 256.568Z" fill="#211C1D"/>
<path d="M186.762 220C186.973 220 187.143 220.164 187.143 220.365C187.143 220.795 186.066 223.617 185.806 225.517C185.774 225.745 186.064 225.836 186.195 225.65C186.823 224.76 187.456 223.808 189.178 223.785C192.385 223.743 194.233 226.79 193.224 229.563C192.729 230.922 185.925 240 185 240C184.075 240 177.271 230.922 176.776 229.563C175.767 226.79 177.615 223.743 180.823 223.785C182.544 223.808 183.177 224.76 183.805 225.65C183.936 225.836 184.226 225.745 184.194 225.517C183.934 223.617 182.857 220.795 182.857 220.365C182.857 220.164 183.027 220 183.238 220L186.762 220Z" fill="#211C1D"/>
<path d="M53.353 72C52.8588 72 52.4582 71.6076 52.4582 71.1235C52.4582 70.0926 54.9923 63.318 55.6043 58.7596C55.6779 58.2115 54.9958 57.993 54.6876 58.4389C53.2105 60.5759 51.7215 62.8613 47.6706 62.9157C40.1234 63.0172 35.7757 55.7041 38.1497 49.0496C39.3137 45.7867 55.3245 24 57.5 24C59.6754 24 75.6864 45.7867 76.8503 49.0496C79.2243 55.7041 74.8766 63.0172 67.3294 62.9157C63.2785 62.8613 61.7895 60.5759 60.3124 58.4389C60.0042 57.993 59.3221 58.2115 59.3957 58.7596C60.0077 63.318 62.5418 70.0926 62.5418 71.1235C62.5418 71.6076 62.1412 72 61.647 72H53.353Z" fill="#211C1D"/>
<path d="M53.353 216C52.8588 216 52.4582 216.392 52.4582 216.877C52.4582 217.907 54.9923 224.682 55.6043 229.24C55.6779 229.789 54.9958 230.007 54.6876 229.561C53.2105 227.424 51.7215 225.139 47.6706 225.084C40.1234 224.983 35.7757 232.296 38.1497 238.95C39.3137 242.213 55.3245 264 57.5 264C59.6754 264 75.6864 242.213 76.8503 238.95C79.2243 232.296 74.8766 224.983 67.3294 225.084C63.2785 225.139 61.7895 227.424 60.3124 229.561C60.0042 230.007 59.3221 229.789 59.3957 229.24C60.0077 224.682 62.5418 217.907 62.5418 216.877C62.5418 216.392 62.1412 216 61.647 216H53.353Z" fill="#211C1D"/>
<path d="M141.353 72C140.859 72 140.458 71.6076 140.458 71.1235C140.458 70.0926 142.992 63.318 143.604 58.7596C143.678 58.2115 142.996 57.993 142.688 58.4389C141.211 60.5759 139.721 62.8613 135.671 62.9157C128.123 63.0172 123.776 55.7041 126.15 49.0496C127.314 45.7867 143.325 24 145.5 24C147.675 24 163.686 45.7867 164.85 49.0496C167.224 55.7041 162.877 63.0172 155.329 62.9157C151.279 62.8613 149.789 60.5759 148.312 58.4389C148.004 57.993 147.322 58.2115 147.396 58.7596C148.008 63.318 150.542 70.0926 150.542 71.1235C150.542 71.6076 150.141 72 149.647 72H141.353Z" fill="#211C1D"/>
<path d="M53.353 168C52.8588 168 52.4582 167.608 52.4582 167.123C52.4582 166.093 54.9923 159.318 55.6043 154.76C55.6779 154.211 54.9958 153.993 54.6876 154.439C53.2105 156.576 51.7215 158.861 47.6706 158.916C40.1234 159.017 35.7757 151.704 38.1497 145.05C39.3137 141.787 55.3245 120 57.5 120C59.6754 120 75.6864 141.787 76.8503 145.05C79.2243 151.704 74.8766 159.017 67.3294 158.916C63.2785 158.861 61.7895 156.576 60.3124 154.439C60.0042 153.993 59.3221 154.211 59.3957 154.76C60.0077 159.318 62.5418 166.093 62.5418 167.123C62.5418 167.608 62.1412 168 61.647 168H53.353Z" fill="#211C1D"/>
<path d="M141.353 168C140.859 168 140.458 167.608 140.458 167.123C140.458 166.093 142.992 159.318 143.604 154.76C143.678 154.211 142.996 153.993 142.688 154.439C141.211 156.576 139.721 158.861 135.671 158.916C128.123 159.017 123.776 151.704 126.15 145.05C127.314 141.787 143.325 120 145.5 120C147.675 120 163.686 141.787 164.85 145.05C167.224 151.704 162.877 159.017 155.329 158.916C151.279 158.861 149.789 156.576 148.312 154.439C148.004 153.993 147.322 154.211 147.396 154.76C148.008 159.318 150.542 166.093 150.542 167.123C150.542 167.608 150.141 168 149.647 168H141.353Z" fill="#211C1D"/>
<path d="M141.353 216C140.859 216 140.458 216.392 140.458 216.877C140.458 217.907 142.992 224.682 143.604 229.24C143.678 229.789 142.996 230.007 142.688 229.561C141.211 227.424 139.721 225.139 135.671 225.084C128.123 224.983 123.776 232.296 126.15 238.95C127.314 242.213 143.325 264 145.5 264C147.675 264 163.686 242.213 164.85 238.95C167.224 232.296 162.877 224.983 155.329 225.084C151.279 225.139 149.789 227.424 148.312 229.561C148.004 230.007 147.322 229.789 147.396 229.24C148.008 224.682 150.542 217.907 150.542 216.877C150.542 216.392 150.141 216 149.647 216H141.353Z" fill="#211C1D"/>
</g>
<defs>
<clipPath id="clip0_102_668">
<rect width="203" height="288" rx="10" fill="white"/>
</clipPath>
</defs>
</svg>
