<svg width="203" height="288" viewBox="0 0 203 288" fill="none" xmlns="http://www.w3.org/2000/svg">
<g clip-path="url(#clip0_102_685)">
<rect width="203" height="288" rx="10" fill="white"/>
<path d="M7.47871 40.2002C6.39766 40.2002 5.73701 39.4595 5.73701 38.2783V14.395C5.73701 13.2139 6.39766 12.4731 7.47871 12.4731C8.55977 12.4731 9.24043 13.2139 9.24043 14.395V38.2783C9.24043 39.4595 8.55977 40.2002 7.47871 40.2002ZM10.2454 26.8672V25.8662C10.2454 17.5781 13.7889 12.0928 19.9749 12.0928C26.1609 12.0928 29.6844 17.5781 29.6844 25.8662V26.8672C29.6844 35.1353 26.1409 40.5806 19.9549 40.5806C13.7889 40.5806 10.2454 35.1553 10.2454 26.8672ZM13.7488 25.8862V26.8271C13.7488 33.4937 16.1312 37.5576 19.9749 37.5576C23.8187 37.5576 26.201 33.4937 26.201 26.8271V25.8862C26.201 19.2197 23.7986 15.1357 19.9549 15.1357C16.1312 15.1357 13.7488 19.2197 13.7488 25.8862Z" fill="#211C1D"/>
<path d="M16.0324 68C15.815 68 15.6387 67.826 15.6387 67.6115C15.6387 66.8912 16.9316 64.2013 17.1901 62.0959C17.2179 61.8695 16.886 61.7854 16.7639 61.9791C16.0982 63.0359 15.1904 64.515 12.9784 64.4633L12.9355 64.4647C12.9068 64.4656 12.8781 64.4666 12.8492 64.4666C10.4471 64.4666 8.5 62.3541 8.5 59.7483C8.5 57.1425 10.4471 55.03 12.8492 55.03C13.3182 55.03 13.7697 55.1108 14.1928 55.26C14.2915 55.2948 14.3921 55.1811 14.3431 55.0897C13.9682 54.3927 13.7531 53.5823 13.7531 52.717C13.7531 50.1483 15.625 48 18 48C20.375 48 22.2469 50.1483 22.2469 52.717C22.2469 53.5823 22.0318 54.3927 21.6569 55.0897C21.6079 55.1811 21.7085 55.2948 21.8072 55.26C22.2303 55.1108 22.6818 55.03 23.1508 55.03C25.5529 55.03 27.5 57.1425 27.5 59.7483C27.5 62.3541 25.5529 64.4666 23.1508 64.4666C23.1219 64.4666 23.0932 64.4656 23.0645 64.4647L23.0216 64.4633C20.8096 64.515 19.9018 63.0359 19.2361 61.9791C19.114 61.7854 18.7821 61.8695 18.8099 62.0959C19.0684 64.2013 20.3613 66.8913 20.3613 67.6114C20.3613 67.826 20.185 68 19.9676 68H16.0324Z" fill="#211C1D"/>
<path d="M195.521 247.8C196.602 247.8 197.263 248.541 197.263 249.722L197.263 273.605C197.263 274.786 196.602 275.527 195.521 275.527C194.44 275.527 193.76 274.786 193.76 273.605L193.76 249.722C193.76 248.541 194.44 247.8 195.521 247.8ZM192.755 261.133L192.755 262.134C192.755 270.422 189.211 275.907 183.025 275.907C176.839 275.907 173.316 270.422 173.316 262.134L173.316 261.133C173.316 252.865 176.859 247.419 183.045 247.419C189.211 247.419 192.755 252.845 192.755 261.133ZM189.251 262.114L189.251 261.173C189.251 254.506 186.869 250.442 183.025 250.442C179.181 250.442 176.799 254.506 176.799 261.173L176.799 262.114C176.799 268.78 179.201 272.864 183.045 272.864C186.869 272.864 189.251 268.78 189.251 262.114Z" fill="#211C1D"/>
<path d="M186.968 220C187.185 220 187.361 220.174 187.361 220.389C187.361 221.109 186.068 223.799 185.81 225.904C185.782 226.131 186.114 226.215 186.236 226.021C186.902 224.964 187.81 223.485 190.022 223.537L190.065 223.535C190.093 223.534 190.122 223.533 190.151 223.533C192.553 223.533 194.5 225.646 194.5 228.252C194.5 230.858 192.553 232.97 190.151 232.97C189.682 232.97 189.23 232.889 188.807 232.74C188.708 232.705 188.608 232.819 188.657 232.91C189.032 233.607 189.247 234.418 189.247 235.283C189.247 237.852 187.375 240 185 240C182.625 240 180.753 237.852 180.753 235.283C180.753 234.418 180.968 233.607 181.343 232.91C181.392 232.819 181.292 232.705 181.193 232.74C180.77 232.889 180.318 232.97 179.849 232.97C177.447 232.97 175.5 230.858 175.5 228.252C175.5 225.646 177.447 223.533 179.849 223.533C179.878 223.533 179.907 223.534 179.935 223.535L179.978 223.537C182.19 223.485 183.098 224.964 183.764 226.021C183.886 226.215 184.218 226.131 184.19 225.904C183.932 223.799 182.639 221.109 182.639 220.389C182.639 220.174 182.815 220 183.032 220L186.968 220Z" fill="#211C1D"/>
<path d="M52.84 72C52.325 72 51.9075 71.5825 51.9075 71.0675C51.9075 69.339 54.9696 62.8831 55.5817 57.8301C55.6476 57.2867 54.8615 57.0849 54.5725 57.5498C52.9958 60.0863 50.8456 63.6359 45.6068 63.512L45.5051 63.5152C45.4372 63.5176 45.3693 63.5199 45.3008 63.5199C39.6117 63.5199 35 58.4499 35 52.1959C35 45.9419 39.6117 40.8719 45.3008 40.8719C46.4114 40.8719 47.4808 41.066 48.483 41.4239C48.7167 41.5074 48.9551 41.2346 48.8388 41.0153C47.951 39.3424 47.4416 37.3975 47.4416 35.3209C47.4416 29.156 51.875 24 57.5 24C63.125 24 67.5584 29.156 67.5584 35.3209C67.5584 37.3975 67.049 39.3424 66.1612 41.0153C66.0449 41.2346 66.2833 41.5074 66.517 41.4239C67.5192 41.066 68.5886 40.8719 69.6992 40.8719C75.3883 40.8719 80 45.9419 80 52.1959C80 58.4499 75.3883 63.5199 69.6992 63.5199C69.6307 63.5199 69.5628 63.5176 69.4949 63.5152L69.3932 63.512C64.1544 63.6359 62.0042 60.0863 60.4275 57.5498C60.1385 57.0849 59.3524 57.2867 59.4183 57.8301C60.0304 62.883 63.0925 69.339 63.0925 71.0675C63.0925 71.5825 62.675 72 62.16 72H52.84Z" fill="#211C1D"/>
<path d="M52.84 152C52.325 152 51.9075 152.418 51.9075 152.933C51.9075 154.661 54.9696 161.117 55.5817 166.17C55.6476 166.713 54.8615 166.915 54.5725 166.45C52.9958 163.914 50.8456 160.364 45.6068 160.488L45.5051 160.485C45.4372 160.482 45.3693 160.48 45.3008 160.48C39.6117 160.48 35 165.55 35 171.804C35 178.058 39.6117 183.128 45.3008 183.128C46.4114 183.128 47.4808 182.934 48.483 182.576C48.7167 182.493 48.9551 182.765 48.8388 182.985C47.951 184.658 47.4416 186.603 47.4416 188.679C47.4416 194.844 51.875 200 57.5 200C63.125 200 67.5584 194.844 67.5584 188.679C67.5584 186.603 67.049 184.658 66.1612 182.985C66.0449 182.765 66.2833 182.493 66.517 182.576C67.5192 182.934 68.5886 183.128 69.6992 183.128C75.3883 183.128 80 178.058 80 171.804C80 165.55 75.3883 160.48 69.6992 160.48C69.6307 160.48 69.5628 160.482 69.4949 160.485L69.3932 160.488C64.1544 160.364 62.0042 163.914 60.4275 166.45C60.1385 166.915 59.3524 166.713 59.4183 166.17C60.0304 161.117 63.0925 154.661 63.0925 152.933C63.0925 152.418 62.675 152 62.16 152H52.84Z" fill="#211C1D"/>
<path d="M140.84 72C140.325 72 139.908 71.5825 139.908 71.0675C139.908 69.339 142.97 62.8831 143.582 57.8301C143.648 57.2867 142.862 57.0849 142.573 57.5498C140.996 60.0863 138.846 63.6359 133.607 63.512L133.505 63.5152C133.437 63.5176 133.369 63.5199 133.301 63.5199C127.612 63.5199 123 58.4499 123 52.1959C123 45.9419 127.612 40.8719 133.301 40.8719C134.411 40.8719 135.481 41.066 136.483 41.4239C136.717 41.5074 136.955 41.2346 136.839 41.0153C135.951 39.3424 135.442 37.3975 135.442 35.3209C135.442 29.156 139.875 24 145.5 24C151.125 24 155.558 29.156 155.558 35.3209C155.558 37.3975 155.049 39.3424 154.161 41.0153C154.045 41.2346 154.283 41.5074 154.517 41.4239C155.519 41.066 156.589 40.8719 157.699 40.8719C163.388 40.8719 168 45.9419 168 52.1959C168 58.4499 163.388 63.5199 157.699 63.5199C157.631 63.5199 157.563 63.5176 157.495 63.5152L157.393 63.512C152.154 63.6359 150.004 60.0863 148.427 57.5498C148.138 57.0849 147.352 57.2867 147.418 57.8301C148.03 62.883 151.092 69.339 151.092 71.0675C151.092 71.5825 150.675 72 150.16 72H140.84Z" fill="#211C1D"/>
<path d="M52.84 136C52.325 136 51.9075 135.582 51.9075 135.067C51.9075 133.339 54.9696 126.883 55.5817 121.83C55.6476 121.287 54.8615 121.085 54.5725 121.55C52.9958 124.086 50.8456 127.636 45.6068 127.512L45.5051 127.515C45.4372 127.518 45.3693 127.52 45.3008 127.52C39.6117 127.52 35 122.45 35 116.196C35 109.942 39.6117 104.872 45.3008 104.872C46.4114 104.872 47.4808 105.066 48.483 105.424C48.7167 105.507 48.9551 105.235 48.8388 105.015C47.951 103.342 47.4416 101.397 47.4416 99.3209C47.4416 93.156 51.875 88 57.5 88C63.125 88 67.5584 93.156 67.5584 99.3209C67.5584 101.397 67.049 103.342 66.1612 105.015C66.0449 105.235 66.2833 105.507 66.517 105.424C67.5192 105.066 68.5886 104.872 69.6992 104.872C75.3883 104.872 80 109.942 80 116.196C80 122.45 75.3883 127.52 69.6992 127.52C69.6307 127.52 69.5628 127.518 69.4949 127.515L69.3932 127.512C64.1544 127.636 62.0042 124.086 60.4275 121.55C60.1385 121.085 59.3524 121.287 59.4183 121.83C60.0304 126.883 63.0925 133.339 63.0925 135.067C63.0925 135.582 62.675 136 62.16 136H52.84Z" fill="#211C1D"/>
<path d="M52.84 216C52.325 216 51.9075 216.418 51.9075 216.933C51.9075 218.661 54.9696 225.117 55.5817 230.17C55.6476 230.713 54.8615 230.915 54.5725 230.45C52.9958 227.914 50.8456 224.364 45.6068 224.488L45.5051 224.485C45.4372 224.482 45.3693 224.48 45.3008 224.48C39.6117 224.48 35 229.55 35 235.804C35 242.058 39.6117 247.128 45.3008 247.128C46.4114 247.128 47.4808 246.934 48.483 246.576C48.7167 246.493 48.9551 246.765 48.8388 246.985C47.951 248.658 47.4416 250.603 47.4416 252.679C47.4416 258.844 51.875 264 57.5 264C63.125 264 67.5584 258.844 67.5584 252.679C67.5584 250.603 67.049 248.658 66.1612 246.985C66.0449 246.765 66.2833 246.493 66.517 246.576C67.5192 246.934 68.5886 247.128 69.6992 247.128C75.3883 247.128 80 242.058 80 235.804C80 229.55 75.3883 224.48 69.6992 224.48C69.6307 224.48 69.5628 224.482 69.4949 224.485L69.3932 224.488C64.1544 224.364 62.0042 227.914 60.4275 230.45C60.1385 230.915 59.3524 230.713 59.4183 230.17C60.0304 225.117 63.0925 218.661 63.0925 216.933C63.0925 216.418 62.675 216 62.16 216H52.84Z" fill="#211C1D"/>
<path d="M140.84 136C140.325 136 139.908 135.582 139.908 135.067C139.908 133.339 142.97 126.883 143.582 121.83C143.648 121.287 142.862 121.085 142.573 121.55C140.996 124.086 138.846 127.636 133.607 127.512L133.505 127.515C133.437 127.518 133.369 127.52 133.301 127.52C127.612 127.52 123 122.45 123 116.196C123 109.942 127.612 104.872 133.301 104.872C134.411 104.872 135.481 105.066 136.483 105.424C136.717 105.507 136.955 105.235 136.839 105.015C135.951 103.342 135.442 101.397 135.442 99.3209C135.442 93.156 139.875 88 145.5 88C151.125 88 155.558 93.156 155.558 99.3209C155.558 101.397 155.049 103.342 154.161 105.015C154.045 105.235 154.283 105.507 154.517 105.424C155.519 105.066 156.589 104.872 157.699 104.872C163.388 104.872 168 109.942 168 116.196C168 122.45 163.388 127.52 157.699 127.52C157.631 127.52 157.563 127.518 157.495 127.515L157.393 127.512C152.154 127.636 150.004 124.086 148.427 121.55C148.138 121.085 147.352 121.287 147.418 121.83C148.03 126.883 151.092 133.339 151.092 135.067C151.092 135.582 150.675 136 150.16 136H140.84Z" fill="#211C1D"/>
<path d="M96.84 104C96.325 104 95.9075 103.582 95.9075 103.067C95.9075 101.339 98.9696 94.8831 99.5817 89.8301C99.6476 89.2867 98.8615 89.0849 98.5725 89.5498C96.9958 92.0863 94.8456 95.6359 89.6068 95.512L89.5051 95.5152C89.4372 95.5176 89.3693 95.5199 89.3008 95.5199C83.6117 95.5199 79 90.4499 79 84.1959C79 77.9419 83.6117 72.8719 89.3008 72.8719C90.4114 72.8719 91.4808 73.066 92.483 73.4239C92.7167 73.5074 92.9551 73.2346 92.8388 73.0153C91.951 71.3424 91.4416 69.3975 91.4416 67.3209C91.4416 61.156 95.875 56 101.5 56C107.125 56 111.558 61.156 111.558 67.3209C111.558 69.3975 111.049 71.3424 110.161 73.0153C110.045 73.2346 110.283 73.5074 110.517 73.4239C111.519 73.066 112.589 72.8719 113.699 72.8719C119.388 72.8719 124 77.9419 124 84.1959C124 90.4499 119.388 95.5199 113.699 95.5199C113.631 95.5199 113.563 95.5176 113.495 95.5152L113.393 95.512C108.154 95.6359 106.004 92.0863 104.427 89.5498C104.138 89.0849 103.352 89.2867 103.418 89.8301C104.03 94.883 107.092 101.339 107.092 103.067C107.092 103.582 106.675 104 106.16 104H96.84Z" fill="#211C1D"/>
<path d="M96.84 184C96.325 184 95.9075 184.418 95.9075 184.933C95.9075 186.661 98.9696 193.117 99.5817 198.17C99.6476 198.713 98.8615 198.915 98.5725 198.45C96.9958 195.914 94.8456 192.364 89.6068 192.488L89.5051 192.485C89.4372 192.482 89.3693 192.48 89.3008 192.48C83.6117 192.48 79 197.55 79 203.804C79 210.058 83.6117 215.128 89.3008 215.128C90.4114 215.128 91.4808 214.934 92.483 214.576C92.7167 214.493 92.9551 214.765 92.8388 214.985C91.951 216.658 91.4416 218.603 91.4416 220.679C91.4416 226.844 95.875 232 101.5 232C107.125 232 111.558 226.844 111.558 220.679C111.558 218.603 111.049 216.658 110.161 214.985C110.045 214.765 110.283 214.493 110.517 214.576C111.519 214.934 112.589 215.128 113.699 215.128C119.388 215.128 124 210.058 124 203.804C124 197.55 119.388 192.48 113.699 192.48C113.631 192.48 113.563 192.482 113.495 192.485L113.393 192.488C108.154 192.364 106.004 195.914 104.427 198.45C104.138 198.915 103.352 198.713 103.418 198.17C104.03 193.117 107.092 186.661 107.092 184.933C107.092 184.418 106.675 184 106.16 184H96.84Z" fill="#211C1D"/>
<path d="M140.84 216C140.325 216 139.908 216.418 139.908 216.933C139.908 218.661 142.97 225.117 143.582 230.17C143.648 230.713 142.862 230.915 142.573 230.45C140.996 227.914 138.846 224.364 133.607 224.488L133.505 224.485C133.437 224.482 133.369 224.48 133.301 224.48C127.612 224.48 123 229.55 123 235.804C123 242.058 127.612 247.128 133.301 247.128C134.411 247.128 135.481 246.934 136.483 246.576C136.717 246.493 136.955 246.765 136.839 246.985C135.951 248.658 135.442 250.603 135.442 252.679C135.442 258.844 139.875 264 145.5 264C151.125 264 155.558 258.844 155.558 252.679C155.558 250.603 155.049 248.658 154.161 246.985C154.045 246.765 154.283 246.493 154.517 246.576C155.519 246.934 156.589 247.128 157.699 247.128C163.388 247.128 168 242.058 168 235.804C168 229.55 163.388 224.48 157.699 224.48C157.631 224.48 157.563 224.482 157.495 224.485L157.393 224.488C152.154 224.364 150.004 227.914 148.427 230.45C148.138 230.915 147.352 230.713 147.418 230.17C148.03 225.117 151.092 218.661 151.092 216.933C151.092 216.418 150.675 216 150.16 216H140.84Z" fill="#211C1D"/>
<path d="M140.84 152C140.325 152 139.908 152.418 139.908 152.933C139.908 154.661 142.97 161.117 143.582 166.17C143.648 166.713 142.862 166.915 142.573 166.45C140.996 163.914 138.846 160.364 133.607 160.488L133.505 160.485C133.437 160.482 133.369 160.48 133.301 160.48C127.612 160.48 123 165.55 123 171.804C123 178.058 127.612 183.128 133.301 183.128C134.411 183.128 135.481 182.934 136.483 182.576C136.717 182.493 136.955 182.765 136.839 182.985C135.951 184.658 135.442 186.603 135.442 188.679C135.442 194.844 139.875 200 145.5 200C151.125 200 155.558 194.844 155.558 188.679C155.558 186.603 155.049 184.658 154.161 182.985C154.045 182.765 154.283 182.493 154.517 182.576C155.519 182.934 156.589 183.128 157.699 183.128C163.388 183.128 168 178.058 168 171.804C168 165.55 163.388 160.48 157.699 160.48C157.631 160.48 157.563 160.482 157.495 160.485L157.393 160.488C152.154 160.364 150.004 163.914 148.427 166.45C148.138 166.915 147.352 166.713 147.418 166.17C148.03 161.117 151.092 154.661 151.092 152.933C151.092 152.418 150.675 152 150.16 152H140.84Z" fill="#211C1D"/>
</g>
<defs>
<clipPath id="clip0_102_685">
<rect width="203" height="288" rx="10" fill="white"/>
</clipPath>
</defs>
</svg>
