<svg width="203" height="288" viewBox="0 0 203 288" fill="none" xmlns="http://www.w3.org/2000/svg">
<g clip-path="url(#clip0_102_677)">
<rect width="203" height="288" rx="10" fill="white"/>
<path d="M9.23193 38.1382C9.23193 37.4175 9.57227 36.8569 10.7534 35.5156L19.0815 25.9863C21.3438 23.4038 22.2046 21.7222 22.2046 19.8403C22.2046 17.0176 20.1826 15.1357 17.1396 15.1357C14.5571 15.1357 12.6553 16.6772 12.0547 19.2798C11.7744 20.3408 11.2139 20.8813 10.3931 20.8813C9.41211 20.8813 8.77148 20.1406 8.77148 19.0596C8.77148 15.6562 12.0747 12.0928 17.3599 12.0928C22.2847 12.0928 25.748 15.2158 25.748 19.6201C25.748 22.2227 24.7271 24.1245 21.1235 28.2285L13.7163 36.6968V36.937H24.8271C25.8882 36.937 26.5688 37.5176 26.5688 38.4785C26.5688 39.4194 25.9282 40 24.8271 40H11.6143C10.1528 40 9.23193 39.2993 9.23193 38.1382Z" fill="#211C1D"/>
<path d="M16.0324 68C15.815 68 15.6387 67.826 15.6387 67.6115C15.6387 66.8912 16.9316 64.2013 17.1901 62.0959C17.2179 61.8695 16.886 61.7854 16.7639 61.9791C16.0982 63.0359 15.1904 64.515 12.9784 64.4633L12.9355 64.4647C12.9068 64.4656 12.8781 64.4666 12.8492 64.4666C10.4471 64.4666 8.5 62.3541 8.5 59.7483C8.5 57.1425 10.4471 55.03 12.8492 55.03C13.3182 55.03 13.7697 55.1108 14.1928 55.26C14.2915 55.2948 14.3921 55.1811 14.3431 55.0897C13.9682 54.3927 13.7531 53.5823 13.7531 52.717C13.7531 50.1483 15.625 48 18 48C20.375 48 22.2469 50.1483 22.2469 52.717C22.2469 53.5823 22.0318 54.3927 21.6569 55.0897C21.6079 55.1811 21.7085 55.2948 21.8072 55.26C22.2303 55.1108 22.6818 55.03 23.1508 55.03C25.5529 55.03 27.5 57.1425 27.5 59.7483C27.5 62.3541 25.5529 64.4666 23.1508 64.4666C23.1219 64.4666 23.0932 64.4656 23.0645 64.4647L23.0216 64.4633C20.8096 64.515 19.9018 63.0359 19.2361 61.9791C19.114 61.7854 18.7821 61.8695 18.8099 62.0959C19.0684 64.2013 20.3613 66.8913 20.3613 67.6114C20.3613 67.826 20.185 68 19.9676 68H16.0324Z" fill="#211C1D"/>
<path d="M193.768 249.862C193.768 250.583 193.428 251.143 192.247 252.484L183.918 262.014C181.656 264.596 180.795 266.278 180.795 268.16C180.795 270.982 182.817 272.864 185.86 272.864C188.443 272.864 190.345 271.323 190.945 268.72C191.226 267.659 191.786 267.119 192.607 267.119C193.588 267.119 194.229 267.859 194.229 268.94C194.229 272.344 190.925 275.907 185.64 275.907C180.715 275.907 177.252 272.784 177.252 268.38C177.252 265.777 178.273 263.875 181.876 259.771L189.284 251.303L189.284 251.063L178.173 251.063C177.112 251.063 176.431 250.482 176.431 249.521C176.431 248.581 177.072 248 178.173 248L191.386 248C192.847 248 193.768 248.701 193.768 249.862Z" fill="#211C1D"/>
<path d="M186.968 220C187.185 220 187.361 220.174 187.361 220.389C187.361 221.109 186.068 223.799 185.81 225.904C185.782 226.131 186.114 226.215 186.236 226.021C186.902 224.964 187.81 223.485 190.022 223.537L190.065 223.535C190.093 223.534 190.122 223.533 190.151 223.533C192.553 223.533 194.5 225.646 194.5 228.252C194.5 230.858 192.553 232.97 190.151 232.97C189.682 232.97 189.23 232.889 188.807 232.74C188.708 232.705 188.608 232.819 188.657 232.91C189.032 233.607 189.247 234.418 189.247 235.283C189.247 237.852 187.375 240 185 240C182.625 240 180.753 237.852 180.753 235.283C180.753 234.418 180.968 233.607 181.343 232.91C181.392 232.819 181.292 232.705 181.193 232.74C180.77 232.889 180.318 232.97 179.849 232.97C177.447 232.97 175.5 230.858 175.5 228.252C175.5 225.646 177.447 223.533 179.849 223.533C179.878 223.533 179.907 223.534 179.935 223.535L179.978 223.537C182.19 223.485 183.098 224.964 183.764 226.021C183.886 226.215 184.218 226.131 184.19 225.904C183.932 223.799 182.639 221.109 182.639 220.389C182.639 220.174 182.815 220 183.032 220L186.968 220Z" fill="#211C1D"/>
<path d="M96.84 72C96.325 72 95.9075 71.5825 95.9075 71.0675C95.9075 69.339 98.9696 62.8831 99.5817 57.8301C99.6476 57.2867 98.8615 57.0849 98.5725 57.5498C96.9958 60.0863 94.8456 63.6359 89.6068 63.512L89.5051 63.5152C89.4372 63.5176 89.3693 63.5199 89.3008 63.5199C83.6117 63.5199 79 58.4499 79 52.1959C79 45.9419 83.6117 40.8719 89.3008 40.8719C90.4114 40.8719 91.4808 41.066 92.483 41.4239C92.7167 41.5074 92.9551 41.2346 92.8388 41.0153C91.951 39.3424 91.4416 37.3975 91.4416 35.3209C91.4416 29.156 95.875 24 101.5 24C107.125 24 111.558 29.156 111.558 35.3209C111.558 37.3975 111.049 39.3424 110.161 41.0153C110.045 41.2346 110.283 41.5074 110.517 41.4239C111.519 41.066 112.589 40.8719 113.699 40.8719C119.388 40.8719 124 45.9419 124 52.1959C124 58.4499 119.388 63.5199 113.699 63.5199C113.631 63.5199 113.563 63.5176 113.495 63.5152L113.393 63.512C108.154 63.6359 106.004 60.0863 104.427 57.5498C104.138 57.0849 103.352 57.2867 103.418 57.8301C104.03 62.883 107.092 69.339 107.092 71.0675C107.092 71.5825 106.675 72 106.16 72H96.84Z" fill="#211C1D"/>
<path d="M96.84 216C96.325 216 95.9075 216.418 95.9075 216.933C95.9075 218.661 98.9696 225.117 99.5817 230.17C99.6476 230.713 98.8615 230.915 98.5725 230.45C96.9958 227.914 94.8456 224.364 89.6068 224.488L89.5051 224.485C89.4372 224.482 89.3693 224.48 89.3008 224.48C83.6117 224.48 79 229.55 79 235.804C79 242.058 83.6117 247.128 89.3008 247.128C90.4114 247.128 91.4808 246.934 92.483 246.576C92.7167 246.493 92.9551 246.765 92.8388 246.985C91.951 248.658 91.4416 250.603 91.4416 252.679C91.4416 258.844 95.875 264 101.5 264C107.125 264 111.558 258.844 111.558 252.679C111.558 250.603 111.049 248.658 110.161 246.985C110.045 246.765 110.283 246.493 110.517 246.576C111.519 246.934 112.589 247.128 113.699 247.128C119.388 247.128 124 242.058 124 235.804C124 229.55 119.388 224.48 113.699 224.48C113.631 224.48 113.563 224.482 113.495 224.485L113.393 224.488C108.154 224.364 106.004 227.914 104.427 230.45C104.138 230.915 103.352 230.713 103.418 230.17C104.03 225.117 107.092 218.661 107.092 216.933C107.092 216.418 106.675 216 106.16 216H96.84Z" fill="#211C1D"/>
</g>
<defs>
<clipPath id="clip0_102_677">
<rect width="203" height="288" rx="10" fill="white"/>
</clipPath>
</defs>
</svg>
