<svg width="203" height="288" viewBox="0 0 203 288" fill="none" xmlns="http://www.w3.org/2000/svg">
<g clip-path="url(#clip0_102_678)">
<rect width="203" height="288" rx="10" fill="white"/>
<path d="M8.31104 34.3945C8.31104 33.4937 8.93164 32.853 9.8125 32.853C10.5132 32.853 10.9536 33.2134 11.4741 34.2344C12.5151 36.3765 14.5972 37.5776 17.3198 37.5776C20.9033 37.5776 23.1855 35.6157 23.1855 32.5527C23.1855 29.4897 20.8433 27.4277 17.3599 27.4277H14.8574C13.9365 27.4277 13.2559 26.7671 13.2559 25.9062C13.2559 25.0254 13.8965 24.4048 14.8574 24.4048H17.2197C20.1426 24.4048 22.2646 22.4229 22.2646 19.6802C22.2646 16.9375 20.2026 15.0957 17.1396 15.0957C14.7573 15.0957 12.9556 16.2769 12.1548 18.3389C11.7544 19.4399 11.2539 19.8604 10.4731 19.8604C9.55225 19.8604 8.95166 19.1997 8.95166 18.1987C8.95166 15.0957 12.2949 12.0928 17.2197 12.0928C22.2246 12.0928 25.7881 15.0757 25.7881 19.2397C25.7881 22.2627 23.5259 25.1455 20.7432 25.626V25.8262C24.1265 26.2065 26.709 29.1694 26.709 32.6128C26.709 37.2974 22.8252 40.5806 17.2598 40.5806C12.0947 40.5806 8.31104 37.4575 8.31104 34.3945Z" fill="#211C1D"/>
<path d="M16.0324 68C15.815 68 15.6387 67.826 15.6387 67.6115C15.6387 66.8912 16.9316 64.2013 17.1901 62.0959C17.2179 61.8695 16.886 61.7854 16.7639 61.9791C16.0982 63.0359 15.1904 64.515 12.9784 64.4633L12.9355 64.4647C12.9068 64.4656 12.8781 64.4666 12.8492 64.4666C10.4471 64.4666 8.5 62.3541 8.5 59.7483C8.5 57.1425 10.4471 55.03 12.8492 55.03C13.3182 55.03 13.7697 55.1108 14.1928 55.26C14.2915 55.2948 14.3921 55.1811 14.3431 55.0897C13.9682 54.3927 13.7531 53.5823 13.7531 52.717C13.7531 50.1483 15.625 48 18 48C20.375 48 22.2469 50.1483 22.2469 52.717C22.2469 53.5823 22.0318 54.3927 21.6569 55.0897C21.6079 55.1811 21.7085 55.2948 21.8072 55.26C22.2303 55.1108 22.6818 55.03 23.1508 55.03C25.5529 55.03 27.5 57.1425 27.5 59.7483C27.5 62.3541 25.5529 64.4666 23.1508 64.4666C23.1219 64.4666 23.0932 64.4656 23.0645 64.4647L23.0216 64.4633C20.8096 64.515 19.9018 63.0359 19.2361 61.9791C19.114 61.7854 18.7821 61.8695 18.8099 62.0959C19.0684 64.2013 20.3613 66.8913 20.3613 67.6114C20.3613 67.826 20.185 68 19.9676 68H16.0324Z" fill="#211C1D"/>
<path d="M194.689 253.605C194.689 254.506 194.068 255.147 193.188 255.147C192.487 255.147 192.046 254.787 191.526 253.766C190.485 251.624 188.403 250.422 185.68 250.422C182.097 250.422 179.814 252.384 179.814 255.447C179.814 258.51 182.157 260.572 185.64 260.572L188.143 260.572C189.063 260.572 189.744 261.233 189.744 262.094C189.744 262.975 189.104 263.595 188.143 263.595L185.78 263.595C182.857 263.595 180.735 265.577 180.735 268.32C180.735 271.062 182.797 272.904 185.86 272.904C188.243 272.904 190.044 271.723 190.845 269.661C191.246 268.56 191.746 268.14 192.527 268.14C193.448 268.14 194.048 268.8 194.048 269.801C194.048 272.904 190.705 275.907 185.78 275.907C180.775 275.907 177.212 272.924 177.212 268.76C177.212 265.737 179.474 262.854 182.257 262.374L182.257 262.174C178.874 261.793 176.291 258.831 176.291 255.387C176.291 250.703 180.175 247.419 185.74 247.419C190.905 247.419 194.689 250.542 194.689 253.605Z" fill="#211C1D"/>
<path d="M186.968 220C187.185 220 187.361 220.174 187.361 220.389C187.361 221.109 186.068 223.799 185.81 225.904C185.782 226.131 186.114 226.215 186.236 226.021C186.902 224.964 187.81 223.485 190.022 223.537L190.065 223.535C190.093 223.534 190.122 223.533 190.151 223.533C192.553 223.533 194.5 225.646 194.5 228.252C194.5 230.858 192.553 232.97 190.151 232.97C189.682 232.97 189.23 232.889 188.807 232.74C188.708 232.705 188.608 232.819 188.657 232.91C189.032 233.607 189.247 234.418 189.247 235.283C189.247 237.852 187.375 240 185 240C182.625 240 180.753 237.852 180.753 235.283C180.753 234.418 180.968 233.607 181.343 232.91C181.392 232.819 181.292 232.705 181.193 232.74C180.77 232.889 180.318 232.97 179.849 232.97C177.447 232.97 175.5 230.858 175.5 228.252C175.5 225.646 177.447 223.533 179.849 223.533C179.878 223.533 179.907 223.534 179.935 223.535L179.978 223.537C182.19 223.485 183.098 224.964 183.764 226.021C183.886 226.215 184.218 226.131 184.19 225.904C183.932 223.799 182.639 221.109 182.639 220.389C182.639 220.174 182.815 220 183.032 220L186.968 220Z" fill="#211C1D"/>
<path d="M96.84 72C96.325 72 95.9075 71.5825 95.9075 71.0675C95.9075 69.339 98.9696 62.8831 99.5817 57.8301C99.6476 57.2867 98.8615 57.0849 98.5725 57.5498C96.9958 60.0863 94.8456 63.6359 89.6068 63.512L89.5051 63.5152C89.4372 63.5176 89.3693 63.5199 89.3008 63.5199C83.6117 63.5199 79 58.4499 79 52.1959C79 45.9419 83.6117 40.8719 89.3008 40.8719C90.4114 40.8719 91.4808 41.066 92.483 41.4239C92.7167 41.5074 92.9551 41.2346 92.8388 41.0153C91.951 39.3424 91.4416 37.3975 91.4416 35.3209C91.4416 29.156 95.875 24 101.5 24C107.125 24 111.558 29.156 111.558 35.3209C111.558 37.3975 111.049 39.3424 110.161 41.0153C110.045 41.2346 110.283 41.5074 110.517 41.4239C111.519 41.066 112.589 40.8719 113.699 40.8719C119.388 40.8719 124 45.9419 124 52.1959C124 58.4499 119.388 63.5199 113.699 63.5199C113.631 63.5199 113.563 63.5176 113.495 63.5152L113.393 63.512C108.154 63.6359 106.004 60.0863 104.427 57.5498C104.138 57.0849 103.352 57.2867 103.418 57.8301C104.03 62.883 107.092 69.339 107.092 71.0675C107.092 71.5825 106.675 72 106.16 72H96.84Z" fill="#211C1D"/>
<path d="M96.84 168C96.325 168 95.9075 167.582 95.9075 167.067C95.9075 165.339 98.9696 158.883 99.5817 153.83C99.6476 153.287 98.8615 153.085 98.5725 153.55C96.9958 156.086 94.8456 159.636 89.6068 159.512L89.5051 159.515C89.4372 159.518 89.3693 159.52 89.3008 159.52C83.6117 159.52 79 154.45 79 148.196C79 141.942 83.6117 136.872 89.3008 136.872C90.4114 136.872 91.4808 137.066 92.483 137.424C92.7167 137.507 92.9551 137.235 92.8388 137.015C91.951 135.342 91.4416 133.397 91.4416 131.321C91.4416 125.156 95.875 120 101.5 120C107.125 120 111.558 125.156 111.558 131.321C111.558 133.397 111.049 135.342 110.161 137.015C110.045 137.235 110.283 137.507 110.517 137.424C111.519 137.066 112.589 136.872 113.699 136.872C119.388 136.872 124 141.942 124 148.196C124 154.45 119.388 159.52 113.699 159.52C113.631 159.52 113.563 159.518 113.495 159.515L113.393 159.512C108.154 159.636 106.004 156.086 104.427 153.55C104.138 153.085 103.352 153.287 103.418 153.83C104.03 158.883 107.092 165.339 107.092 167.067C107.092 167.582 106.675 168 106.16 168H96.84Z" fill="#211C1D"/>
<path d="M96.84 216C96.325 216 95.9075 216.418 95.9075 216.933C95.9075 218.661 98.9696 225.117 99.5817 230.17C99.6476 230.713 98.8615 230.915 98.5725 230.45C96.9958 227.914 94.8456 224.364 89.6068 224.488L89.5051 224.485C89.4372 224.482 89.3693 224.48 89.3008 224.48C83.6117 224.48 79 229.55 79 235.804C79 242.058 83.6117 247.128 89.3008 247.128C90.4114 247.128 91.4808 246.934 92.483 246.576C92.7167 246.493 92.9551 246.765 92.8388 246.985C91.951 248.658 91.4416 250.603 91.4416 252.679C91.4416 258.844 95.875 264 101.5 264C107.125 264 111.558 258.844 111.558 252.679C111.558 250.603 111.049 248.658 110.161 246.985C110.045 246.765 110.283 246.493 110.517 246.576C111.519 246.934 112.589 247.128 113.699 247.128C119.388 247.128 124 242.058 124 235.804C124 229.55 119.388 224.48 113.699 224.48C113.631 224.48 113.563 224.482 113.495 224.485L113.393 224.488C108.154 224.364 106.004 227.914 104.427 230.45C104.138 230.915 103.352 230.713 103.418 230.17C104.03 225.117 107.092 218.661 107.092 216.933C107.092 216.418 106.675 216 106.16 216H96.84Z" fill="#211C1D"/>
</g>
<defs>
<clipPath id="clip0_102_678">
<rect width="203" height="288" rx="10" fill="white"/>
</clipPath>
</defs>
</svg>
