<svg width="203" height="288" viewBox="0 0 203 288" fill="none" xmlns="http://www.w3.org/2000/svg">
<g clip-path="url(#clip0_102_682)">
<rect width="203" height="288" rx="10" fill="white"/>
<path d="M11.5347 38.7588C11.5347 38.3184 11.6748 37.938 11.895 37.4976L22.0049 15.9365V15.7363H9.59277C8.35156 15.7363 7.75098 15.0957 7.75098 14.2148C7.75098 13.314 8.35156 12.6733 9.59277 12.6733H23.8467C24.8877 12.6733 25.7485 13.394 25.7485 14.5752C25.7485 15.1357 25.4683 16.0566 25.0278 16.9976L14.8179 39.0391C14.4375 39.8398 13.957 40.3203 13.1162 40.3203C12.2954 40.3203 11.5347 39.6997 11.5347 38.7588Z" fill="#211C1D"/>
<path d="M16.0324 68C15.815 68 15.6387 67.826 15.6387 67.6115C15.6387 66.8912 16.9316 64.2013 17.1901 62.0959C17.2179 61.8695 16.886 61.7854 16.7639 61.9791C16.0982 63.0359 15.1904 64.515 12.9784 64.4633L12.9355 64.4647C12.9068 64.4656 12.8781 64.4666 12.8492 64.4666C10.4471 64.4666 8.5 62.3541 8.5 59.7483C8.5 57.1425 10.4471 55.03 12.8492 55.03C13.3182 55.03 13.7697 55.1108 14.1928 55.26C14.2915 55.2948 14.3921 55.1811 14.3431 55.0897C13.9682 54.3927 13.7531 53.5823 13.7531 52.717C13.7531 50.1483 15.625 48 18 48C20.375 48 22.2469 50.1483 22.2469 52.717C22.2469 53.5823 22.0318 54.3927 21.6569 55.0897C21.6079 55.1811 21.7085 55.2948 21.8072 55.26C22.2303 55.1108 22.6818 55.03 23.1508 55.03C25.5529 55.03 27.5 57.1425 27.5 59.7483C27.5 62.3541 25.5529 64.4666 23.1508 64.4666C23.1219 64.4666 23.0932 64.4656 23.0645 64.4647L23.0216 64.4633C20.8096 64.515 19.9018 63.0359 19.2361 61.9791C19.114 61.7854 18.7821 61.8695 18.8099 62.0959C19.0684 64.2013 20.3613 66.8913 20.3613 67.6114C20.3613 67.826 20.185 68 19.9676 68H16.0324Z" fill="#211C1D"/>
<path d="M191.465 249.241C191.465 249.682 191.325 250.062 191.105 250.502L180.995 272.063L180.995 272.264L193.407 272.264C194.648 272.264 195.249 272.904 195.249 273.785C195.249 274.686 194.648 275.327 193.407 275.327L179.153 275.327C178.112 275.327 177.251 274.606 177.251 273.425C177.251 272.864 177.532 271.943 177.972 271.002L188.182 248.961C188.563 248.16 189.043 247.68 189.884 247.68C190.705 247.68 191.465 248.3 191.465 249.241Z" fill="#211C1D"/>
<path d="M186.968 220C187.185 220 187.361 220.174 187.361 220.389C187.361 221.109 186.068 223.799 185.81 225.904C185.782 226.131 186.114 226.215 186.236 226.021C186.902 224.964 187.81 223.485 190.022 223.537L190.065 223.535C190.093 223.534 190.122 223.533 190.151 223.533C192.553 223.533 194.5 225.646 194.5 228.252C194.5 230.858 192.553 232.97 190.151 232.97C189.682 232.97 189.23 232.889 188.807 232.74C188.708 232.705 188.608 232.819 188.657 232.91C189.032 233.607 189.247 234.418 189.247 235.283C189.247 237.852 187.375 240 185 240C182.625 240 180.753 237.852 180.753 235.283C180.753 234.418 180.968 233.607 181.343 232.91C181.392 232.819 181.292 232.705 181.193 232.74C180.77 232.889 180.318 232.97 179.849 232.97C177.447 232.97 175.5 230.858 175.5 228.252C175.5 225.646 177.447 223.533 179.849 223.533C179.878 223.533 179.907 223.534 179.935 223.535L179.978 223.537C182.19 223.485 183.098 224.964 183.764 226.021C183.886 226.215 184.218 226.131 184.19 225.904C183.932 223.799 182.639 221.109 182.639 220.389C182.639 220.174 182.815 220 183.032 220L186.968 220Z" fill="#211C1D"/>
<path d="M52.84 72C52.325 72 51.9075 71.5825 51.9075 71.0675C51.9075 69.339 54.9696 62.8831 55.5817 57.8301C55.6476 57.2867 54.8615 57.0849 54.5725 57.5498C52.9958 60.0863 50.8456 63.6359 45.6068 63.512L45.5051 63.5152C45.4372 63.5176 45.3693 63.5199 45.3008 63.5199C39.6117 63.5199 35 58.4499 35 52.1959C35 45.9419 39.6117 40.8719 45.3008 40.8719C46.4114 40.8719 47.4808 41.066 48.483 41.4239C48.7167 41.5074 48.9551 41.2346 48.8388 41.0153C47.951 39.3424 47.4416 37.3975 47.4416 35.3209C47.4416 29.156 51.875 24 57.5 24C63.125 24 67.5584 29.156 67.5584 35.3209C67.5584 37.3975 67.049 39.3424 66.1612 41.0153C66.0449 41.2346 66.2833 41.5074 66.517 41.4239C67.5192 41.066 68.5886 40.8719 69.6992 40.8719C75.3883 40.8719 80 45.9419 80 52.1959C80 58.4499 75.3883 63.5199 69.6992 63.5199C69.6307 63.5199 69.5628 63.5176 69.4949 63.5152L69.3932 63.512C64.1544 63.6359 62.0042 60.0863 60.4275 57.5498C60.1385 57.0849 59.3524 57.2867 59.4183 57.8301C60.0304 62.883 63.0925 69.339 63.0925 71.0675C63.0925 71.5825 62.675 72 62.16 72H52.84Z" fill="#211C1D"/>
<path d="M52.84 216C52.325 216 51.9075 216.418 51.9075 216.933C51.9075 218.661 54.9696 225.117 55.5817 230.17C55.6476 230.713 54.8615 230.915 54.5725 230.45C52.9958 227.914 50.8456 224.364 45.6068 224.488L45.5051 224.485C45.4372 224.482 45.3693 224.48 45.3008 224.48C39.6117 224.48 35 229.55 35 235.804C35 242.058 39.6117 247.128 45.3008 247.128C46.4114 247.128 47.4808 246.934 48.483 246.576C48.7167 246.493 48.9551 246.765 48.8388 246.985C47.951 248.658 47.4416 250.603 47.4416 252.679C47.4416 258.844 51.875 264 57.5 264C63.125 264 67.5584 258.844 67.5584 252.679C67.5584 250.603 67.049 248.658 66.1612 246.985C66.0449 246.765 66.2833 246.493 66.517 246.576C67.5192 246.934 68.5886 247.128 69.6992 247.128C75.3883 247.128 80 242.058 80 235.804C80 229.55 75.3883 224.48 69.6992 224.48C69.6307 224.48 69.5628 224.482 69.4949 224.485L69.3932 224.488C64.1544 224.364 62.0042 227.914 60.4275 230.45C60.1385 230.915 59.3524 230.713 59.4183 230.17C60.0304 225.117 63.0925 218.661 63.0925 216.933C63.0925 216.418 62.675 216 62.16 216H52.84Z" fill="#211C1D"/>
<path d="M140.84 72C140.325 72 139.908 71.5825 139.908 71.0675C139.908 69.339 142.97 62.8831 143.582 57.8301C143.648 57.2867 142.862 57.0849 142.573 57.5498C140.996 60.0863 138.846 63.6359 133.607 63.512L133.505 63.5152C133.437 63.5176 133.369 63.5199 133.301 63.5199C127.612 63.5199 123 58.4499 123 52.1959C123 45.9419 127.612 40.8719 133.301 40.8719C134.411 40.8719 135.481 41.066 136.483 41.4239C136.717 41.5074 136.955 41.2346 136.839 41.0153C135.951 39.3424 135.442 37.3975 135.442 35.3209C135.442 29.156 139.875 24 145.5 24C151.125 24 155.558 29.156 155.558 35.3209C155.558 37.3975 155.049 39.3424 154.161 41.0153C154.045 41.2346 154.283 41.5074 154.517 41.4239C155.519 41.066 156.589 40.8719 157.699 40.8719C163.388 40.8719 168 45.9419 168 52.1959C168 58.4499 163.388 63.5199 157.699 63.5199C157.631 63.5199 157.563 63.5176 157.495 63.5152L157.393 63.512C152.154 63.6359 150.004 60.0863 148.427 57.5498C148.138 57.0849 147.352 57.2867 147.418 57.8301C148.03 62.883 151.092 69.339 151.092 71.0675C151.092 71.5825 150.675 72 150.16 72H140.84Z" fill="#211C1D"/>
<path d="M52.84 168C52.325 168 51.9075 167.582 51.9075 167.067C51.9075 165.339 54.9696 158.883 55.5817 153.83C55.6476 153.287 54.8615 153.085 54.5725 153.55C52.9958 156.086 50.8456 159.636 45.6068 159.512L45.5051 159.515C45.4372 159.518 45.3693 159.52 45.3008 159.52C39.6117 159.52 35 154.45 35 148.196C35 141.942 39.6117 136.872 45.3008 136.872C46.4114 136.872 47.4808 137.066 48.483 137.424C48.7167 137.507 48.9551 137.235 48.8388 137.015C47.951 135.342 47.4416 133.397 47.4416 131.321C47.4416 125.156 51.875 120 57.5 120C63.125 120 67.5584 125.156 67.5584 131.321C67.5584 133.397 67.049 135.342 66.1612 137.015C66.0449 137.235 66.2833 137.507 66.517 137.424C67.5192 137.066 68.5886 136.872 69.6992 136.872C75.3883 136.872 80 141.942 80 148.196C80 154.45 75.3883 159.52 69.6992 159.52C69.6307 159.52 69.5628 159.518 69.4949 159.515L69.3932 159.512C64.1544 159.636 62.0042 156.086 60.4275 153.55C60.1385 153.085 59.3524 153.287 59.4183 153.83C60.0304 158.883 63.0925 165.339 63.0925 167.067C63.0925 167.582 62.675 168 62.16 168H52.84Z" fill="#211C1D"/>
<path d="M96.84 120C96.325 120 95.9075 119.582 95.9075 119.067C95.9075 117.339 98.9696 110.883 99.5817 105.83C99.6476 105.287 98.8615 105.085 98.5725 105.55C96.9958 108.086 94.8456 111.636 89.6068 111.512L89.5051 111.515C89.4372 111.518 89.3693 111.52 89.3008 111.52C83.6117 111.52 79 106.45 79 100.196C79 93.9419 83.6117 88.8719 89.3008 88.8719C90.4114 88.8719 91.4808 89.066 92.483 89.4239C92.7167 89.5074 92.9551 89.2346 92.8388 89.0153C91.951 87.3424 91.4416 85.3975 91.4416 83.3209C91.4416 77.156 95.875 72 101.5 72C107.125 72 111.558 77.156 111.558 83.3209C111.558 85.3975 111.049 87.3424 110.161 89.0153C110.045 89.2346 110.283 89.5074 110.517 89.4239C111.519 89.066 112.589 88.8719 113.699 88.8719C119.388 88.8719 124 93.9419 124 100.196C124 106.45 119.388 111.52 113.699 111.52C113.631 111.52 113.563 111.518 113.495 111.515L113.393 111.512C108.154 111.636 106.004 108.086 104.427 105.55C104.138 105.085 103.352 105.287 103.418 105.83C104.03 110.883 107.092 117.339 107.092 119.067C107.092 119.582 106.675 120 106.16 120H96.84Z" fill="#211C1D"/>
<path d="M140.84 168C140.325 168 139.908 167.582 139.908 167.067C139.908 165.339 142.97 158.883 143.582 153.83C143.648 153.287 142.862 153.085 142.573 153.55C140.996 156.086 138.846 159.636 133.607 159.512L133.505 159.515C133.437 159.518 133.369 159.52 133.301 159.52C127.612 159.52 123 154.45 123 148.196C123 141.942 127.612 136.872 133.301 136.872C134.411 136.872 135.481 137.066 136.483 137.424C136.717 137.507 136.955 137.235 136.839 137.015C135.951 135.342 135.442 133.397 135.442 131.321C135.442 125.156 139.875 120 145.5 120C151.125 120 155.558 125.156 155.558 131.321C155.558 133.397 155.049 135.342 154.161 137.015C154.045 137.235 154.283 137.507 154.517 137.424C155.519 137.066 156.589 136.872 157.699 136.872C163.388 136.872 168 141.942 168 148.196C168 154.45 163.388 159.52 157.699 159.52C157.631 159.52 157.563 159.518 157.495 159.515L157.393 159.512C152.154 159.636 150.004 156.086 148.427 153.55C148.138 153.085 147.352 153.287 147.418 153.83C148.03 158.883 151.092 165.339 151.092 167.067C151.092 167.582 150.675 168 150.16 168H140.84Z" fill="#211C1D"/>
<path d="M140.84 216C140.325 216 139.908 216.418 139.908 216.933C139.908 218.661 142.97 225.117 143.582 230.17C143.648 230.713 142.862 230.915 142.573 230.45C140.996 227.914 138.846 224.364 133.607 224.488L133.505 224.485C133.437 224.482 133.369 224.48 133.301 224.48C127.612 224.48 123 229.55 123 235.804C123 242.058 127.612 247.128 133.301 247.128C134.411 247.128 135.481 246.934 136.483 246.576C136.717 246.493 136.955 246.765 136.839 246.985C135.951 248.658 135.442 250.603 135.442 252.679C135.442 258.844 139.875 264 145.5 264C151.125 264 155.558 258.844 155.558 252.679C155.558 250.603 155.049 248.658 154.161 246.985C154.045 246.765 154.283 246.493 154.517 246.576C155.519 246.934 156.589 247.128 157.699 247.128C163.388 247.128 168 242.058 168 235.804C168 229.55 163.388 224.48 157.699 224.48C157.631 224.48 157.563 224.482 157.495 224.485L157.393 224.488C152.154 224.364 150.004 227.914 148.427 230.45C148.138 230.915 147.352 230.713 147.418 230.17C148.03 225.117 151.092 218.661 151.092 216.933C151.092 216.418 150.675 216 150.16 216H140.84Z" fill="#211C1D"/>
</g>
<defs>
<clipPath id="clip0_102_682">
<rect width="203" height="288" rx="10" fill="white"/>
</clipPath>
</defs>
</svg>
