<svg width="203" height="288" viewBox="0 0 203 288" fill="none" xmlns="http://www.w3.org/2000/svg">
<g clip-path="url(#clip0_102_676)">
<rect width="203" height="288" rx="10" fill="white"/>
<path d="M8.19092 40.2603C7.18994 40.2603 6.5293 39.6797 6.5293 38.7588C6.5293 38.3584 6.62939 37.978 6.78955 37.4976L15.0176 14.4951C15.5181 13.0938 16.2188 12.4531 17.5 12.4531C18.7812 12.4531 19.4819 13.0938 19.9824 14.4951L28.2104 37.4976C28.3706 37.938 28.4707 38.3584 28.4707 38.7388C28.4707 39.6797 27.8101 40.2603 26.7891 40.2603C25.8281 40.2603 25.2876 39.7998 24.9072 38.6187L22.605 31.792H12.375L10.0728 38.6187C9.69238 39.8198 9.15186 40.2603 8.19092 40.2603ZM13.3159 28.9692H21.6641L17.5601 16.7974H17.4199L13.3159 28.9692Z" fill="#211C1D"/>
<path d="M16.0324 68C15.815 68 15.6387 67.826 15.6387 67.6115C15.6387 66.8912 16.9316 64.2013 17.1901 62.0959C17.2179 61.8695 16.886 61.7854 16.7639 61.9791C16.0982 63.0359 15.1904 64.515 12.9784 64.4633L12.9355 64.4647C12.9068 64.4656 12.8781 64.4666 12.8492 64.4666C10.4471 64.4666 8.5 62.3541 8.5 59.7483C8.5 57.1425 10.4471 55.03 12.8492 55.03C13.3182 55.03 13.7697 55.1108 14.1928 55.26C14.2915 55.2948 14.3921 55.1811 14.3431 55.0897C13.9682 54.3927 13.7531 53.5823 13.7531 52.717C13.7531 50.1483 15.625 48 18 48C20.375 48 22.2469 50.1483 22.2469 52.717C22.2469 53.5823 22.0318 54.3927 21.6569 55.0897C21.6079 55.1811 21.7085 55.2948 21.8072 55.26C22.2303 55.1108 22.6818 55.03 23.1508 55.03C25.5529 55.03 27.5 57.1425 27.5 59.7483C27.5 62.3541 25.5529 64.4666 23.1508 64.4666C23.1219 64.4666 23.0932 64.4656 23.0645 64.4647L23.0216 64.4633C20.8096 64.515 19.9018 63.0359 19.2361 61.9791C19.114 61.7854 18.7821 61.8695 18.8099 62.0959C19.0684 64.2013 20.3613 66.8913 20.3613 67.6114C20.3613 67.826 20.185 68 19.9676 68H16.0324Z" fill="#211C1D"/>
<path d="M194.809 247.74C195.81 247.74 196.471 248.32 196.471 249.241C196.471 249.642 196.371 250.022 196.21 250.502L187.982 273.505C187.482 274.906 186.781 275.547 185.5 275.547C184.219 275.547 183.518 274.906 183.018 273.505L174.79 250.502C174.629 250.062 174.529 249.642 174.529 249.261C174.529 248.32 175.19 247.74 176.211 247.74C177.172 247.74 177.712 248.2 178.093 249.381L180.395 256.208L190.625 256.208L192.927 249.381C193.308 248.18 193.848 247.74 194.809 247.74ZM189.684 259.031L181.336 259.031L185.44 271.203L185.58 271.203L189.684 259.031Z" fill="#211C1D"/>
<path d="M186.968 220C187.185 220 187.361 220.174 187.361 220.389C187.361 221.109 186.068 223.799 185.81 225.904C185.782 226.131 186.114 226.215 186.236 226.021C186.902 224.964 187.81 223.485 190.022 223.537L190.065 223.535C190.093 223.534 190.122 223.533 190.151 223.533C192.553 223.533 194.5 225.646 194.5 228.252C194.5 230.858 192.553 232.97 190.151 232.97C189.682 232.97 189.23 232.889 188.807 232.74C188.708 232.705 188.608 232.819 188.657 232.91C189.032 233.607 189.247 234.418 189.247 235.283C189.247 237.852 187.375 240 185 240C182.625 240 180.753 237.852 180.753 235.283C180.753 234.418 180.968 233.607 181.343 232.91C181.392 232.819 181.292 232.705 181.193 232.74C180.77 232.889 180.318 232.97 179.849 232.97C177.447 232.97 175.5 230.858 175.5 228.252C175.5 225.646 177.447 223.533 179.849 223.533C179.878 223.533 179.907 223.534 179.935 223.535L179.978 223.537C182.19 223.485 183.098 224.964 183.764 226.021C183.886 226.215 184.218 226.131 184.19 225.904C183.932 223.799 182.639 221.109 182.639 220.389C182.639 220.174 182.815 220 183.032 220L186.968 220Z" fill="#211C1D"/>
<path d="M96.84 168C96.325 168 95.9075 167.582 95.9075 167.067C95.9075 165.339 98.9696 158.883 99.5817 153.83C99.6476 153.287 98.8615 153.085 98.5725 153.55C96.9958 156.086 94.8456 159.636 89.6068 159.512L89.5051 159.515C89.4372 159.518 89.3693 159.52 89.3008 159.52C83.6117 159.52 79 154.45 79 148.196C79 141.942 83.6117 136.872 89.3008 136.872C90.4114 136.872 91.4808 137.066 92.483 137.424C92.7167 137.507 92.9551 137.235 92.8388 137.015C91.951 135.342 91.4416 133.397 91.4416 131.321C91.4416 125.156 95.875 120 101.5 120C107.125 120 111.558 125.156 111.558 131.321C111.558 133.397 111.049 135.342 110.161 137.015C110.045 137.235 110.283 137.507 110.517 137.424C111.519 137.066 112.589 136.872 113.699 136.872C119.388 136.872 124 141.942 124 148.196C124 154.45 119.388 159.52 113.699 159.52C113.631 159.52 113.563 159.518 113.495 159.515L113.393 159.512C108.154 159.636 106.004 156.086 104.427 153.55C104.138 153.085 103.352 153.287 103.418 153.83C104.03 158.883 107.092 165.339 107.092 167.067C107.092 167.582 106.675 168 106.16 168H96.84Z" fill="#211C1D"/>
</g>
<defs>
<clipPath id="clip0_102_676">
<rect width="203" height="288" rx="10" fill="white"/>
</clipPath>
</defs>
</svg>
